<svg xmlns="http://www.w3.org/2000/svg" width="180" height="190"><path fill="#2344A5" d="M60 16c6.286.326 18.512 2.512 23 7 .04 1.666.043 3.334 0 5l-5 2-.437 3.688c-.39 3.139-.887 6.22-1.563 9.312l3 1c1.495 2.99 1.116 5.7 1 9l-1 3h-3l2.813 1.625C82.377 60.281 83.626 61.798 85 66c.202 4.292-.516 7.232-2.812 10.875C78.392 80.562 75.205 81.29 70 82l-.25 3.188C69.274 89.13 68.214 92.722 67 96.5c-2.583 8.182-4.09 15.197-1 23.5 1.923 2.404 3.278 3.64 6 5 1.874.07 3.75.084 5.625.063l3.04-.028L83 125c-.661 5.664-1.988 10.963-3.562 16.438l-.71 2.505q-.86 3.03-1.728 6.057c-7.307.208-12.754-.692-18.68-5.309-1.383-1.316-1.383-1.316-3.32-3.691v-2h-2v5l5 2-1 6c-4.005 1.06-6.956.756-11 0l-.734 3.078C39.628 178.372 39.628 178.372 36 182c-6.639 1.062-11.838.251-17.441-3.418-2.047-2.077-2.72-3.787-3.559-6.582.368-2.723.368-2.723 1.23-5.633.31-1.053.618-2.106.936-3.191l1.021-3.301.963-3.324c2.444-8.145 2.444-8.145 5.85-11.551l-10-4v-5c1.977-.73 3.98-1.394 6-2l2 1 .286-1.638c1.515-8.131 3.773-16.038 6.026-23.987q1.347-4.77 2.684-9.543l.718-2.56c1.96-7.03 3.835-14.08 5.696-21.135l1.743-6.57c.86-3.241 1.716-6.483 2.56-9.728.79-3.042 1.596-6.08 2.404-9.116l.703-2.758C47.1 43.22 48.256 39.423 52 36h4c2.402-5.741 3.334-9.995 2.129-16.152L58 18zm1 44v3Zm-2 3 1 2Zm0 8 1 4 1-2zm2 4 1 4 4 1zm-27 73 4 1Zm4 1c1.839 2.287 1.839 2.287 4.625 2.125L45 151c-2.647-1.46-3.894-2-7-2"/><path fill="#7D40E2" d="m150.938 15.313 3.214.8C157 17 157 17 160 19q-.963 3.97-1.937 7.938l-.553 2.287c-1.397 5.662-1.397 5.662-2.51 6.775-2 .04-4 .043-6 0l-.312 3.938C148.152 44.902 146.75 49.342 145 54h-6c.752 3.278.752 3.278 4 5-1.188 6.448-2.677 12.68-4.625 18.938l-1.578 5.195q-1.423 4.655-2.858 9.307a3042 3042 0 0 0-3.314 10.873l-1.084 3.486c-1.683 5.567-3.029 10.374-2.541 16.201 3.9 2.6 7.474 2.15 12 2 1.85 5.239-.064 9.702-1.687 14.75l-.78 2.652-.795 2.52-.717 2.3C134 149 134 149 132.049 149.742c-7.321.921-14.5 1.002-21.049-2.742-3.425-2.892-6.294-5.83-8-10 .046-6.202 1.71-11.93 3.688-17.75 2.673-8.137 5.092-16.322 7.395-24.571l.718-2.558.63-2.268C116 88 116 88 117 86l-2 1-1 3h-5l-2 4 4 1c-.558 5.966-1.46 11.55-3.04 17.324l-.617 2.273q-.647 2.355-1.306 4.706a519 519 0 0 0-1.916 7.168C100.262 140.609 100.262 140.609 93 145l-2.223 1.46c-4.092 2.034-7.092 3.008-11.777 2.54 1.282-7.34 3.218-14.379 5.36-21.508 1.988-6.621 3.905-13.263 5.83-19.903q.93-3.214 1.863-6.428L95 91h6l1-4-1.937-.375L98 86c-1.557-3.113-.277-5.296.688-8.562l1.011-3.567C101 71 101 71 102.957 70.035 105 70 105 70 108 71v-3l-4-2c.416-6.195 1.603-11.267 4-17 5.802.975 10.84 2.013 16 5l-1 5h2l1-4 2.938-.375L132 54l1-2-5-1c.52-5.712 1.127-11.93 4-17 3.752-1.602 6.305-.427 10 1l1-2-5-1q.682-2.845 1.375-5.687l.773-3.2c.776-2.834 1.598-5.456 2.852-8.113 2.941-1.47 4.795-.491 7.938.313M121 65l-2 4h-5l-1 4 4 2v5h2l4-14z"/><path fill="#7B3EE4" d="M124 66c1.938.563 1.938.563 4 2 .688 3.563.688 3.563 1 7l1 1c.04 1.666.043 3.334 0 5h2c.345 10.436.345 10.436-1.062 15.5-1.265 3.436-1.265 3.436.062 6.5a94 94 0 0 1-1.937 6.25c-1.58 4.857-2.535 8.678-2.063 13.75 3.9 2.6 7.474 2.15 12 2 1.85 5.239-.064 9.702-1.687 14.75l-.78 2.652-.795 2.52-.717 2.3C134 149 134 149 132.049 149.742c-7.321.921-14.5 1.002-21.049-2.742-3.425-2.892-6.294-5.83-8-10 .046-6.202 1.71-11.93 3.688-17.75 2.673-8.137 5.092-16.322 7.395-24.571l.718-2.558.63-2.268C116 88 116 88 117 86h-4v2c-5.654.346-9.03-.566-14-3v-3h2l1-9c5.27-.44 5.27-.44 8 0 2.375 2.438 2.375 2.438 4 5l2 1 2 3h4l-.125-3.5c-.016-4.445.907-8.237 2.125-12.5"/><path fill="#7C3FE2" d="M103 91h3l.313 1.875c.562 2.49.562 2.49 3.687 4.125l-.805 2.746-1.07 3.692-1.055 3.62c-.777 2.763-1.43 5.53-2.027 8.337-1.026 4.71-2.368 9.272-3.856 13.855l-.712 2.352C98.435 137.873 95.55 141.299 90 145c-2.687.125-2.687.125-5 0-1.604-7.437-.146-13.764 2-21l1-1 .375-3c.607-4.561 2.109-8.672 3.625-13 .903-2.685 1.795-5.374 2.688-8.062L97 92l6 1z"/><path fill="#6139AB" d="M108 49q2.409.426 4.813.875l2.707.492C118 51 118 51 121 53c-6.4 1.23-6.4 1.23-9.437.063L110 52l.125 3.813c.114 3.478-.066 4.098-2.125 7.187h3v4l1.828-.875L115.25 65l2.39-1.125C120 63 120 63 124 63c1.33 3.989.384 7.185-.437 11.188l-.448 2.271Q122.565 79.231 122 82l-5 1-.312-1.937L116 79l-3-1-1.75-2c-2.965-2.636-5.368-2.701-9.25-3l-1 9h-2v3l2.938.438C105 86 105 86 106 87q3.493.552 7 1v-2l2 1-1 3h-5l-2 4 4 1c-.558 5.966-1.46 11.55-3.04 17.324l-.617 2.273q-.647 2.355-1.306 4.706a519 519 0 0 0-1.916 7.168C100.262 140.609 100.262 140.609 93 145l-2.223 1.46c-4.092 2.034-7.092 3.008-11.777 2.54 1.282-7.34 3.218-14.379 5.36-21.508 1.988-6.621 3.905-13.263 5.83-19.903q.93-3.214 1.863-6.428L95 91h5l-1 2-2-1a591 591 0 0 0-5.352 20.664C91 115 91 115 90 116l-.375 3c-.373 2.953-1.103 5.519-2.125 8.313C85.47 133.085 85 138.91 85 145c5.671-1.356 5.671-1.356 10-5h2l.516-1.984c1.318-4.966 2.737-9.85 4.421-14.703 2.495-7.321 4.26-14.8 6.063-22.313q.495-2 1-4l-3-2v-4h-3v2h-2l1-6-1.937-.375L98 86c-1.557-3.113-.277-5.296.688-8.562l1.011-3.567C101 71 101 71 102.957 70.035 105 70 105 70 108 71v-3l-4-2c.416-6.195 1.603-11.267 4-17m13 16-2 4h-5l-1 4 4 2v5h2l4-14z"/><path fill="#1E3577" d="M77 43c3 3 3 3 3.25 6.5C80 53 80 53 79 56l-3.625-.625C71.432 54.892 68.612 55.15 65 57c-.843 1.872-.843 1.872-1 4l-1.062 1.813c-1.712 3.993-1.263 7.857-.25 12C64.37 77.617 65.918 78.108 69 79c1.283 5.88.535 9.793-1.375 15.438C64.769 103.106 62.691 111.107 66 120c1.923 2.404 3.278 3.64 6 5 1.874.07 3.75.084 5.625.063l3.04-.028L83 125c-.661 5.664-1.988 10.963-3.562 16.438l-.71 2.505q-.86 3.03-1.728 6.057c-8.471.268-8.471.268-12.812-1.875l-2.208-1.055C60 146 60 146 57 144v-2l5-1 1 4c4.376.593 8.575 1.138 13 1l.313-3.437C76.89 137.806 78.35 133.48 80 129l-2.082-.402-2.73-.536-2.708-.527c-4.903-1.058-6.688-2.347-9.48-6.535-1.95-8.912-2.13-18.368 1.266-26.89C65.529 90.48 65.697 86.814 66 83l-1.797-.738C60.177 79.956 58.08 76.05 56 72c-1.066-5.522.585-8.681 3.516-13.203 2.346-2.84 4.314-4.538 7.957-5.344l2.59-.203 2.597-.234C75 53 75 53 78 54zM61 60v3Zm-2 3 1 2Zm0 8 1 4 1-2zm2 4 1 4 4 1z"/><path fill="#7C40E0" d="M153 20h4l-1 11-3.937 1.188c-2.199.772-2.199.772-4.063 1.812-1.015 2.32-1.015 2.32-1 5a505 505 0 0 1-2 6 482 482 0 0 0-2 7h-5v2l-3-1v-3l-5-1c.397-1.63.818-3.254 1.25-4.875l.703-2.742C133 39 133 39 134.843 37.719c3.376-1.125 6.62-1.365 10.157-1.719l1-7-4-1c.363-6.416.363-6.416 3.25-9.062 3.46-1.18 4.538-.503 7.75 1.062"/><path fill="#263C79" d="M52 138h1v6l5 2-1 6c-4.005 1.06-6.956.756-11 0l-.734 3.078C39.628 178.372 39.628 178.372 36 182c-6.639 1.062-11.838.251-17.441-3.418-2.158-2.19-2.887-3.547-3.559-6.582.483-3.042 1.406-5.894 2.375-8.812l.75-2.39c.61-1.937 1.24-3.868 1.875-5.798h1c.082 4.161-.018 7.947-1 12h-2l-1 8h2l1 2c5.156 1.894 9.519 2.372 15 2 2.814-2.814 2.883-5.965 3.5-9.75.821-4.926 1.78-9.535 3.5-14.25l-5-1v-2l-1.793-.332c-4.59-.921-8.37-1.822-12.207-4.668v-1l1.977.254 2.648.309 2.602.316c2.821.234 2.821.234 5.726-.473 3.658-.488 5.743.23 9.172 1.531C48.821 149.326 50.992 150 55 150l1-3-5-1zm-18 10 4 1Zm4 1c1.839 2.287 1.839 2.287 4.625 2.125L45 151c-2.647-1.46-3.894-2-7-2"/><path fill="#773FD3" d="M108 49q2.409.426 4.813.875l2.707.492C118 51 118 51 121 53c-6.4 1.23-6.4 1.23-9.437.063L110 52l.125 3.813c.114 3.478-.066 4.098-2.125 7.187h3v4l1.828-.875L115.25 65l2.39-1.125C120 63 120 63 124 63c1.33 3.989.384 7.185-.437 11.188l-.448 2.271Q122.565 79.231 122 82l-5 1-.312-1.937L116 79l-3-1-1.937-2c-2.12-2.055-3.2-2.591-6.063-3l3-1c.733-2.015.733-2.015 1-4l-5-2c.416-6.195 1.603-11.267 4-17m13 16-2 4h-5l-1 4 4 2v5h2l4-14z"/><path fill="#254080" d="M60 16c2.383.242 2.383.242 5.125.875l2.758.617L70 18v1l-8 1 1 6h-2v4l3 1c-3 2-3 2-5 2l1 5-1.68.621-2.195.816-2.18.81c-1.981.732-1.981.732-3.945 1.753a109 109 0 0 0-1 7h-2l-.148 1.723C46.37 55.7 45.45 60.196 44 65a104 104 0 0 0-1.312 9.25c-.751 4.095-2.155 7.488-3.766 11.305-1.2 3.182-1.628 6.068-1.922 9.445l-3-1c2.558-11.193 5.312-22.317 8.354-33.389q.654-2.391 1.292-4.787a874 874 0 0 1 1.916-7.058l.563-2.147C47.337 42.305 48.745 39.126 52 36h4c2.402-5.741 3.334-9.995 2.129-16.152L58 18z"/><path fill="#6A3FBE" d="M143 15h1c-.52 4.38-1.057 8.688-2 13h5c-.875 7.875-.875 7.875-2 9q-2.687.284-5.375.563c-4.112.575-4.112.575-6.984 3.277-.727 2.05-1.224 4.028-1.641 6.16l-1 2 5 1c-.875 5.875-.875 5.875-2 7-2 .04-4 .043-6 0l-1 4h-2l2-6 2.938-.375L132 54l1-2-5-1c.52-5.712 1.127-11.93 4-17 3.752-1.602 6.305-.427 10 1l1-2-5-1q.682-2.845 1.375-5.687l.773-3.2c.771-2.817 1.707-5.43 2.852-8.113"/><path fill="#6239A7" d="M145 14a893 893 0 0 1 5.813 1.375l3.269.773C157 17 157 17 160 19q-.963 3.97-1.937 7.938l-.553 2.287c-1.397 5.662-1.397 5.662-2.51 6.775-2 .04-4 .043-6 0l-.312 3.938C148.152 44.902 146.75 49.342 145 54h-5l-1-2h4l.367-2.52.508-3.292.492-3.27C145 40 145 40 147 37l.188-2 .812-2 3.438-1.125c1.952-.601 1.952-.601 3.562-1.875 1.232-3.277 1.68-6.525 2-10h-4l-1 2v-3c-3.024.588-6.018 1.227-9 2z"/><path fill="#7D3FE4" d="M102 73c5.27-.44 5.27-.44 8 0 2.375 2.438 2.375 2.438 4 5l2 1c-.543 3.804-2.03 5.608-5 8-2.616 1.06-4.182 1.27-6.875.383-1.735-.735-3.433-1.554-5.125-2.383v-3h2z"/><path fill="#1D3471" d="M52 138h1v6l5 2-1 6c-3.982 1.054-6.982.841-11 0l-2 4-1-2c-3.23-1.667-6.458-2.299-10-2.937-3.872-.729-6.815-1.621-10-4.063v-1l1.977.254 2.648.309 2.602.316c2.821.234 2.821.234 5.726-.473 3.658-.488 5.743.23 9.172 1.531C48.821 149.326 50.992 150 55 150l1-3-5-1zm-18 10 4 1Zm4 1c1.839 2.287 1.839 2.287 4.625 2.125L45 151c-2.647-1.46-3.894-2-7-2"/><path fill="#7D40E4" d="M110 52c8.75 1.875 8.75 1.875 11 3-.06 1.46-.149 2.918-.25 4.375l-.14 2.46C120 64 120 64 118.202 65.29 116 66 116 66 112 66l-1 2-1-3 1-2h-3z"/><path fill="#55319E" d="m129 102 2 1-.875 2.598c-2.82 8.537-2.82 8.537-3.125 17.402 3.9 2.6 7.474 2.15 12 2 .966 3.707.994 6.018-.215 9.645l-.83 2.548-.893 2.62-.88 2.677A718 718 0 0 1 134 149h-3v-2h2l.313-2.937c.536-3.873 1.728-7.384 3.066-11.047.768-2.142.768-2.142.621-5.016l-2.3-.008-3.012-.117-2.989-.07C126 127 126 127 124.04 124.422c-1.271-4.186-.641-7.013.648-11.047l.569-1.984c.97-3.296 2.073-6.385 3.744-9.391"/><path fill="#472486" d="m115 84 4 1c-2.057 10.034-4.4 19.708-7.766 29.39-2.766 8.09-5.162 16.117-6.234 24.61-2-2-2-2-2.071-3.856.694-5.547 1.963-10.609 3.758-15.894 2.674-8.137 5.093-16.322 7.396-24.571l.718-2.558.63-2.268C116 88 116 88 117 86h-2z"/><path fill="#222D70" d="M80 125h3c-.661 5.664-1.988 10.963-3.562 16.438l-.71 2.505q-.86 3.03-1.728 6.057c-8.471.268-8.471.268-12.812-1.875l-2.208-1.055C60 146 60 146 57 144v-2l5-1 1 4c4.376.593 8.575 1.138 13 1l.313-3.437c.494-4.09 1.64-7.73 3.066-11.583.77-2.111.77-2.111.621-4.98z"/><path fill="#6642A8" d="m141 58 2 1c-1.236 6.799-2.883 13.343-4.937 19.938q-.801 2.614-1.598 5.23l-.766 2.51C134.37 91.091 133.166 95.54 132 100h-3c1.354-7.209 2.716-13.91 5.953-20.508 2.345-5.581 3.593-11.63 5.047-17.492l.613-2.45z"/><path fill="#283C80" d="M76 56c3.744 1.803 5.553 3.366 7.938 6.75C85.28 66.86 85.25 69.875 84 74c-2.417 3.971-4.566 5.645-9 7v-2l2.375-1.875C79.98 75.015 80.825 74.038 82 71c.211-3.125-.116-5.994-1-9-2.996-2.663-6.038-3.604-10-4-2.725.377-2.725.377-5 1l-1-2c3.477-1.738 7.199-1.454 11-1"/><path fill="#563199" d="m134 33 1 2-2 3c-.38 1.95-.38 1.95-.5 4-.248 3.276-.556 4.083-2.5 7l5 1c-.875 5.875-.875 5.875-2 7-2 .04-4 .043-6 0l-1 4h-2l2-6 2.938-.375L132 54l1-2-5-1c.538-5.913 1.512-11.559 4-17z"/><path fill="#5F3A9B" d="M95 91h5l-1 2-2-1a591 591 0 0 0-5.352 20.664C91 115 91 115 90 116l-.375 3c-.801 6.073-2.415 12.389-6.625 17 .678-6.424 2.458-12.39 4.313-18.562l1.898-6.41.929-3.122C91.804 102.283 93.4 96.64 95 91"/><path fill="#172B61" d="M77 43c3 3 3 3 3.25 6.5C80 53 80 53 79 56l-3.562-.687c-4.55-.556-7.424.371-11.438 2.687-3.88 3.676-4.587 6.738-5 12l-2-1c-.505-5.306.693-7.867 4-12 2.979-2.66 5.098-3.439 9.063-3.75l2.597-.234C75 53 75 53 78 54z"/><path fill="#6541AB" d="M108 49q2.409.426 4.813.875l2.707.492C118 51 118 51 121 53c-4.499.865-7.016 1.309-11-1l-.621 2.082-.817 2.73-.808 2.708A216 216 0 0 1 106 65h3v2l-5-1c.416-6.195 1.603-11.267 4-17"/><path fill="#1F3574" d="M70 19c4.973.497 8.638 1.553 13 4v5l-5 2-.437 3.75c-.83 6.416-.83 6.416-1.563 8.25l-3 1c1.03-6.018 2.117-11.58 5-17l3-1-1.645-.805-2.168-1.07-2.144-1.055C73 21 73 21 70 19"/><path fill="#663FB5" d="M84 134c1.176 3.674 1.074 7.17 1 11l4 1h-2v2c-2.709 1.354-5.01 1.065-8 1q.465-2.407.938-4.812l.527-2.708C81 139 81 139 82 136h2z"/><path fill="#603DA1" d="m108 68 2 1-2 4h-6l-1 9h-2v3l4 1c.934 3.01 1.044 3.867 0 7h-2l1-6-1.937-.375L98 86c-1.557-3.113-.277-5.296.688-8.562l1.011-3.567C101 71 101 71 102.957 70.035 105 70 105 70 108 71z"/><path fill="#102354" d="m23 146 11 1v2l2.625.375c3.27.606 6.248 1.508 9.375 2.625l-2 4-1-2c-3.23-1.667-6.458-2.299-10-2.937-3.872-.729-6.815-1.621-10-4.063z"/><path fill="#4F2B8A" d="M120 63h4c1.324 3.973.181 6.81-.937 10.688l-.592 2.126Q121.744 78.41 121 81h-2c.642-5.135 1.683-9.994 3-15l-3 4-6-1 1-2h5z"/><path fill="#15245F" d="M63 106a66 66 0 0 1 1.395 6.438c.856 5.445.856 5.445 3.605 10.124 3.135 2.254 5.309 2.658 9.125 3l2.758.254L82 126c-3.303 2.202-3.792 2.2-7.5 1.688l-2.344-.301c-3.266-.586-4.92-1.15-7.293-3.532-2.203-3.375-2.48-5.544-2.675-9.543l-.208-3.449C62 108 62 108 63 106"/><path fill="#623DA5" d="M104 119c1.736 3.472-.05 7.155-1 10.75l-.559 2.422c-1.616 6.105-4.195 9.342-9.441 12.828-3.437 1.875-3.437 1.875-6 3v-2c1.68-1.508 1.68-1.508 3.875-3.125l2.18-1.633C95 140 95 140 97 140l.55-2.09C102.102 120.9 102.102 120.9 104 119"/><path fill="#7141CA" d="m145 14 9 2v2l4 1-1 3v-2h-4l-1 2v-3c-3.024.588-6.018 1.227-9 2z"/><path fill="#633DAD" d="m105 140 4 2v2l1.688.375C113 145 113 145 115.25 146c3.093 1.125 5.785 1.409 9.063 1.625l3.238.227L130 148v2c-8.59.426-15.269.255-21.937-5.562C106 142 106 142 105 140"/><path fill="#253B89" d="m62 141 1 4 3.75.5 2.11.281c2.445.287 2.445.287 6.14.219v2c-3 2-3 2-5.05 1.898-5.11-1.182-8.871-2.551-12.95-5.898v-2c3-1 3-1 5-1"/><path fill="#6440AD" d="M132 127h8c-1.28 7.61-3.428 14.732-6 22h-3v-2h2l.313-2.937c.536-3.873 1.728-7.384 3.066-11.047.768-2.142.768-2.142.621-5.016h-5z"/><path fill="#703ECB" d="M138 52c2.875 2.875 2.836 6.105 3 10-.437 3-.437 3-1 5-1.062-1.812-1.062-1.812-2-4l1-3c-3.981-1.327-7.85-1.07-12-1v-2l6-1 1-3 4 1z"/><path fill="#422477" d="M143 15h1c-.514 4.97-1.234 9.29-3 14l4 2-1 5-1-3-5-1q.682-2.845 1.375-5.687l.773-3.2c.771-2.817 1.707-5.43 2.852-8.113"/><path fill="#7740D3" d="m97 92 6 1-1 2h-2l-.812 1.688C98 99 98 99 96.438 101.375c-1.594 2.91-2.057 5.35-2.438 8.625h-2c1.24-6.172 2.896-12.067 5-18"/><path fill="#723EC7" d="M117 53h6c.826 2.892 1 4.887 1 8l2 1-2 3v-2h-4c-.125-5.75-.125-5.75 1-8z"/><path fill="#6C47AB" d="m154 17 5 1c1.29 3.872.223 6.442-.937 10.188l-.592 1.982A647 647 0 0 1 156 35h-2v-2h-5v-1l6-2 .375-2.125c.663-3.052 1.597-5.928 2.625-8.875z"/><path fill="#4D2C8C" d="M107 118c1.517 2.383 2.09 3.503 1.574 6.332l-.886 2.48c-1.377 4.11-2.22 7.886-2.688 12.188-2-2-2-2-2.082-3.812.734-5.959 2.192-11.494 4.082-17.188"/><path fill="#253B82" d="M31 103h1c.081 2.083.14 4.166.188 6.25l.105 3.516c-.408 4.5-2.207 6.148-5.293 9.234.737-6.485 2.353-12.692 4-19"/><path fill="#273E7D" d="M60 16c1.698.252 3.385.576 5.063.938l2.785.59L70 18v1l-8 1v5h-2c-1.395-2.298-2.074-3.48-1.687-6.187C59 17 59 17 60 16"/><path fill="#653AB3" d="M112 70h2l1 3 3 2-1 5 4 1 1-4v5l-5 1c-1.765-3.088-2-4.233-2-8l-3-1z"/><path fill="#6539BC" d="m103 86 10 2v-2l2 1-1 3-2.312-.25c-2.834-.042-2.834-.042-4.5 2.25L106 94v-3l-3-1z"/><path fill="#21326E" d="m83 64 2 2c-.185 5.63-.755 8.99-5 13-2.75 1.313-2.75 1.313-5 2v-2l2.313-1.75C80.366 74.694 81.568 72.694 83 69c.253-2.751.253-2.751 0-5"/><path fill="#753ED5" d="m124 66 4 2c-.425 2.468-.687 3.712-2.562 5.438-1.717 1.54-1.717 1.54-1.626 4.25L124 80l-2 1c-.226-5.419.533-9.775 2-15"/><path fill="#244192" d="M61 105h1l1 14-3-1a888 888 0 0 1-.062-5.375l-.036-3.023C60 107 60 107 61 105"/><path fill="#244087" d="M22 143c1.938.087 3.876.195 5.813.313l3.269.175c3.093.543 4.048 1.065 5.918 3.512-5.273-.445-10.018-1.084-15-3z"/><path fill="#14285E" d="M52 138h1v6l5 2-1 4v-3l-6-1z"/><path fill="#203677" d="M37 81h2l-2 14-3-1z"/><path fill="#1F409A" d="m49 43 1 2 2 1-1.375 3.188A319 319 0 0 0 47 58c-1.16-3.478-.708-5.459 0-9h2z"/><path fill="#2B3A75" d="M80 125h3c-.539 5.278-1.65 9.3-4 14l-2 1 .656-2.3.844-3.012.844-2.989c.774-2.722.774-2.722.656-5.699z"/><path fill="#683FC2" d="M132 86h1c.369 10.558.369 10.558-2 15l-2-1z"/><path fill="#28418E" d="m64 75 5 1v2l6 1v2c-5.55.37-5.55.37-7.75-1.437L66 78l-2-1z"/><path fill="#5831AA" d="m120 63 4 1h-3l-2 6-6-1 1-2h5z"/><path fill="#4B2B86" d="m128 46 1.813 1.438c2.19 1.727 2.19 1.727 5.187 2.562l-1 5-2-1 1-2-5-1z"/><path fill="#6B41B7" d="m145 14 4 1c-.75 2.438-.75 2.438-2 5-2.125.813-2.125.813-4 1z"/><path fill="#253B83" d="m23 147 5 2-4 1-1 5h-2c.875-6.875.875-6.875 2-8"/><path fill="#1F408E" d="m50 144 1 2c2.527.656 2.527.656 5 1l-1 4-4-1z"/><path fill="#1A2656" d="m68 81 2 1c-.804 8.036-.804 8.036-3 12a535 535 0 0 1-.062-4.25l-.036-2.39c.094-2.267.466-4.189 1.098-6.36"/><path fill="#7842D6" d="M102 73h1l-.035 2.336-.028 3.039-.035 3.023c-.082 2.586-.082 2.586 1.098 4.602l-5-1v-3h2z"/><path fill="#172E66" d="M23 146c6.055.39 6.055.39 8 1 1.258 2.047 1.258 2.047 2 4q-2.222-.676-4.437-1.375l-2.497-.773C24 148 24 148 23 146"/><path fill="#743ED3" d="M118 89c1.62 2.572 2.044 3.677 1.625 6.75L119 98h-3c.875-7.875.875-7.875 2-9"/><path fill="#733ED2" d="m114 81 3 1v2h-2v2h-2v2h-5l2.438-2.375C112.987 83.28 112.987 83.28 114 81"/><path fill="#723DC5" d="M144.063 27.938 147 28c-.586 6.152-.586 6.152-1 8l-2 1v-6l-4-2c1-1 1-1 4.063-1.062"/><path fill="#253F93" d="M21 136v2h-2v2h4v2l-7-2v-3c3-1 3-1 5-1"/><path fill="#233E86" d="m62 80 6 1-1 7h-1v-5l-4-2z"/><path fill="#1D3790" d="m57 35 3 3-9 3 1-3h3l1-2z"/><path fill="#243D8E" d="m69 53-1.687.813C64.802 55.1 62.407 56.529 60 58l-1-2c1-2 1-2 2.75-2.625 2.455-.41 4.766-.444 7.25-.375"/><path fill="#7640D5" d="m91 112 3 3-1 3-3-1-1 2c.875-5.875.875-5.875 2-7"/><path fill="#4D289F" d="m121 64 4 1-2 9h-1l.098-6.055c.028-2.027.028-2.027-1.098-3.945"/><path fill="#132B59" d="M82 26v3l-4 1-1 4v-6z"/></svg>