<svg xmlns="http://www.w3.org/2000/svg" width="370" height="178"><path fill="#2244A0" d="M132 7c5.826.52 10.75 1.329 16 4 1.188 2.813 1.188 2.813 1 6-1.312 3-1.312 3-3 6-.7 1.989-1.377 3.986-2 6l-6-1-.312 3.938C137.152 36.902 135.75 41.342 134 46l-5 1v2l3 2c-.366 5.97-1.958 11.096-3.918 16.735-2.587 7.543-4.515 15.24-6.482 22.962a322 322 0 0 1-1.803 6.6l-.568 2.03q-.759 2.69-1.53 5.376c-.746 3.52-.822 6.71-.699 10.297l2.371-.035 3.067-.028 3.058-.035C128 115 128 115 129 116c-.376 7.52-1.888 15.113-5 22-4.46 3.394-10.709 2.532-16 2-6.343-1.671-10.474-4.49-14-10-1.134-4.476-.903-7.447.477-11.824l1.027-3.343 1.121-3.52q1.117-3.624 2.227-7.25l1.11-3.61c1.459-4.852 2.772-9.735 4.038-14.64l.627-2.427Q105.32 80.694 106 78l-2 3c-2.625.188-2.625.188-5 0l-1 4 4 1c-.632 7.055-2.413 13.582-4.375 20.375l-.922 3.25c-.89 3.128-1.795 6.252-2.703 9.375l-.836 2.935-.785 2.71-.685 2.386C89.788 132.442 83.892 135.496 79 138c-3.648 1.268-7.116 2-11 2l-3.187.188c-4.566-.225-7.619-1.422-11.813-3.188l-1 1v3c-3.996 2.83-7.427 1.762-12 1-.09 1.013-.09 1.013-.184 2.047l-.254 2.703c-.08.882-.162 1.763-.246 2.672A44 44 0 0 1 38 156h-2l.188 3.125c-.241 4.977-1.55 8.054-4.876 11.75-3.451 1.68-6.6 1.742-10.312 1.125-4.187-1.523-8.212-3.43-11-7-.7-6.136 1.52-13 2.813-19l.463-2.286c.494-2.151.494-2.151 1.724-5.714l4-2-10-5 1-5c3-2 3-2 7-2l.7-3.086c1.923-8.384 3.995-16.7 6.373-24.968 1.346-4.715 2.563-9.453 3.743-14.212a1458 1458 0 0 1 6.91-26.756q.719-2.693 1.417-5.39a812 812 0 0 1 2.103-7.912l.613-2.421C40.229 34.3 41.804 31.266 46 28h3c.557-2.1 1.095-4.205 1.625-6.312l.914-3.551C52.38 14.845 52.38 14.845 50 12l2-3c7.573.505 16.727 1.598 22.84 6.465C76.484 17.64 76.215 19.352 76 22h-3c-1.582 4.324-2.829 8.38-3 13l2.063 1.75C74 39 74 39 73.824 41.688A132 132 0 0 1 72 50l4 1c.72 3.19 1.218 6.383 1.625 9.625.095.755.19 1.51.29 2.29C78 65 78 65 77 68c-4.647 3.853-8.17 4.598-14 5l.07 2.082.055 2.73.07 2.708C63 83 63 83 61 86c-2.968 9.311-3.947 16.822-.95 26.18.87 2.18.87 2.18 3.95 2.82 1.895.069 3.792.085 5.688.063l3.011-.028L75 115c2.235-5.822 4.247-11.68 6.125-17.625l.8-2.484C83.283 90.608 84.408 86.47 85 82c3.133-1.044 3.99-.934 7 0l-1-3-3-1c.589-5.495 1.332-10.72 3-16 3-1 3-1 6 0l1-4-1.937-.375L94 57c-1.557-3.113-.277-5.296.688-8.562l1.011-3.567C97 42 97 42 98.762 41c3.022 0 5.479.659 8.363 1.563l3.195.94C113 45 113 45 114.367 48.154L115 51l.375-1.937L116 47c2.49-1.245 3.41-.777 6 0-.752-3.278-.752-3.278-4-5 .416-6.195 1.603-11.267 4-17l2.813.5c3.143.577 3.143.577 6.187.5l-3-2c.55-6.048 1.904-11.306 4-17M62 47v1h6v-1zm49 10-.687 1.938C109 61 109 61 106.375 61.75L104 62v3l3 1v5h2q.795-2.653 1.563-5.312l.878-2.989c.811-2.78.811-2.78-.441-5.699m-37 62 1 3Zm-2 8 1 2Zm-1 3 1 2Zm-24 1v3h2l-1-3zm23 3 1 2Z"/><path fill="#773DD7" d="M132 7c5.826.52 10.75 1.329 16 4 1.188 2.813 1.188 2.813 1 6-1.312 3-1.312 3-3 6-.7 1.989-1.377 3.986-2 6l-6-1-.312 3.938C137.152 36.902 135.75 41.342 134 46l-5 1v2l3 2c-.366 5.97-1.958 11.096-3.918 16.735-2.587 7.543-4.515 15.24-6.482 22.962a322 322 0 0 1-1.803 6.6l-.568 2.03q-.759 2.69-1.53 5.376c-.746 3.52-.822 6.71-.699 10.297l2.371-.035 3.067-.028 3.058-.035C128 115 128 115 129 116c-.376 7.52-1.888 15.113-5 22-4.46 3.394-10.709 2.532-16 2-6.343-1.671-10.474-4.49-14-10-1.134-4.476-.903-7.447.477-11.824l1.027-3.343 1.121-3.52q1.117-3.624 2.227-7.25l1.11-3.61c1.459-4.852 2.772-9.735 4.038-14.64l.627-2.427Q105.32 80.694 106 78l-2 3c-2.625.188-2.625.188-5 0l-1 4 4 1c-.632 7.055-2.413 13.582-4.375 20.375l-.922 3.25c-.89 3.128-1.795 6.252-2.703 9.375l-.836 2.935-.785 2.71-.685 2.386C89.79 132.434 83.893 135.51 79 138c-2.67.886-5.23 1.456-8 2-1.335-3.701-.643-6.262.375-10l.836-3.125L73 124l.466-1.928c.534-2.072 1.177-4.068 1.87-6.092 1.862-5.526 3.583-11.091 5.289-16.668l.945-3.048C83.02 91.528 84.378 86.93 85 82c3.133-1.044 3.99-.934 7 0l-1-3-3-1c.589-5.495 1.332-10.72 3-16 3-1 3-1 6 0l1-4-1.937-.375L94 57c-1.557-3.113-.277-5.296.688-8.562l1.011-3.567C97 42 97 42 98.762 41c3.022 0 5.479.659 8.363 1.563l3.195.94C113 45 113 45 114.367 48.154L115 51l.375-1.937L116 47c2.49-1.245 3.41-.777 6 0-.752-3.278-.752-3.278-4-5 .416-6.195 1.603-11.267 4-17l2.813.5c3.143.577 3.143.577 6.187.5l-3-2c.55-6.048 1.904-11.306 4-17m-21 50-.687 1.938C109 61 109 61 106.375 61.75L104 62v3l3 1v5h2q.795-2.653 1.563-5.312l.878-2.989c.811-2.78.811-2.78-.441-5.699"/><path fill="#234290" d="M328.375 42c5.852 4.459 10.563 9.844 12.625 17 .937 7.59-.02 14.392-4 21-4.115 4.517-8.851 8.186-15 9-9.184-.046-16.022-.786-22.687-7.437C295.176 76.666 294.084 71.197 293 65l-1.375 2.438C290 70 290 70 288 71l1.277 2.195 1.66 2.93 1.653 2.883c1.44 3.055 2.019 5.653 2.41 8.992-4.824.662-9.206.968-14 0-3.326-3.225-5.158-6.783-7-11l-1-2-3-1 .035 2.809c.01 1.197.018 2.395.027 3.629l.036 3.62C270 87 270 87 269 88c-1.998.099-4 .13-6 .125l-3.312.008C257 88 257 88 256 87a59 59 0 0 1-.13-4.137l-.009-2.66.006-2.89-.003-2.948q0-3.093.006-6.184c.005-3.167 0-6.334-.007-9.501q0-2.997.004-5.992l-.006-2.892.01-2.66.002-2.352C256 43 256 43 257 42c4.055-.282 8.124-.232 12.188-.25l3.447-.062c10.564-.05 10.564-.05 15.365 3.312 3.665 3.749 5.672 6.928 7 12l1.563-3.625c2.769-5.52 6.52-9.19 12.257-11.52 6.361-1.71 13.237-1.727 19.555.145M270 54v8c4.003.092 4.003.092 8 0 1.296-1.066 1.296-1.066 1.063-3.562L279 56c-3.135-1.858-5.375-2.201-9-2m41 3c-2.72 3.497-2.523 7.76-2 12 .884 2.947.884 2.947 3 5 3.424 1.562 3.424 1.562 7 2l3-2v-2l3-1c1.101-5.808 1.326-8.827-2-14-4.096-4.096-7.648-3.411-12 0"/><path fill="#6139A5" d="M241 95h11l2.195 4.793 2.93 6.394 1.438 3.14c3.465 7.563 6.947 15.12 10.437 22.673l.076-3.289q.142-6.018.296-12.037.065-2.609.125-5.218.088-3.742.187-7.483l.05-2.37c.152-5.49.152-5.49 1.266-6.603 3.346-.282 6.706-.232 10.063-.25l2.818-.062c7.095-.04 13.076.65 18.619 5.5L304 102l1-7q7.208-.037 14.417-.055 2.452-.008 4.906-.02c2.348-.013 4.696-.018 7.044-.023l2.223-.015c5.182 0 5.182 0 7.41 1.113.098 6.152.098 6.152 0 8l-1 1h-11v30c-9 1-9 1-13-1v-30l-9 1-2-1 .36 1.688c.935 5.54.451 8.857-2.255 13.78C302 121 302 121 300 122c1.094 3.1 2.286 5.409 4.188 8.125L306 133l-1 3c-7.973.782-7.973.782-11.875-2.187C288 127.029 288 127.029 288 124h-6v11c-3.492 1.164-6.335 1.065-10 1-1.707 0-3.416.02-5.121.105-6.16.219-6.16.219-9.379-1.23C256 133 256 133 255 127h-17l-1 6-1 2c-2.215.45-2.215.45-4.937.688l-2.715.261C226 136 226 136 224 135c2.43-7.885 5.675-15.296 9.063-22.812l1.642-3.678c2.034-4.542 4.07-9.058 6.295-13.51m41 10v10c5.713.592 5.713.592 10.5-2l1.5-2-2-6zm-36 3-3 10h8l-4-10z"/><path fill="#1E3881" d="m70 36 4 3-2 11 4 1c.72 3.19 1.218 6.383 1.625 9.625.095.755.19 1.51.29 2.29C78 65 78 65 77 68c-4.647 3.853-8.17 4.598-14 5l.07 2.082.055 2.73.07 2.708C63 83 63 83 61 86c-2.968 9.311-3.947 16.822-.95 26.18.87 2.18.87 2.18 3.95 2.82 1.895.069 3.792.085 5.688.063l3.011-.028L75 115l-.414 2.066q-.625 3.135-1.234 6.274l-.727 3.597c-.235 1.185-.47 2.37-.71 3.59C71 134.001 69.717 136.857 68 140c-5.802.363-9.64-.743-15-3l-1 1v3c-3.996 2.83-7.427 1.762-12 1l-.184 2.047-.254 2.703c-.08.882-.162 1.763-.246 2.672A44 44 0 0 1 38 156h-2l.188 3.125c-.241 4.977-1.55 8.054-4.876 11.75-3.451 1.68-6.6 1.742-10.312 1.125-4.187-1.523-8.212-3.43-11-7-.7-6.136 1.52-13 2.813-19l.463-2.286c.494-2.151.494-2.151 1.724-5.714l4-2-10-5 1-5c3-2 3-2 7-2l2-10 2 1a478 478 0 0 1-.875 4.875l-.492 2.742C19 125 19 125 17 127c-3.125.125-3.125.125-6 0l1 3q2.188.252 4.375.5l2.46.281c2.134.253 2.134.253 4.165.219v2h2v2l2.063-.187c3.027.193 5.037 1.05 7.757 2.32 4.557 1.813 9.411 2.763 14.18 3.867-.669-3.113-.669-3.113-3.062-4.187L44 136c-.125-5.75-.125-5.75 1-8h2v2l1.73.836C51 132 51 132 53.113 133.289l2.2 1.336 2.175 1.352c3.14 1.463 3.14 1.463 9.512 1.023l5-20h-9c-2.964-.527-4.32-1.05-6.08-3.51-3.223-5.871-3.407-10.888-3.17-17.49l.055-2.926q.07-3.538.195-7.074l3-1c.353-6.139.353-6.139-1-12l-2.562-2.562L51 68v-3h-2c-.59-6.274-.351-11.714 2.957-17.215C56.289 44 62.477 44.232 68 44c1.47-3.91 1.47-3.91 2-8m-8 11v1h6v-1zm-15 84v3h2l-1-3z"/><path fill="#254494" d="m153.75 40.75 2.297-.078L158 41c2 3 2 3 2 6a80 80 0 0 0 2.875 4.813c2.27 3.655 4.021 6.992 5.125 11.187 2.712-2.415 4.202-4.981 5.875-8.187 2.524-4.746 5.224-9.29 8.125-13.813l13 1v46h-11c-1.584-1.584-1.22-3.277-1.316-5.473l-.127-2.724-.12-2.865-.13-2.877q-.16-3.53-.307-7.061l-1.68 2.992-2.195 3.883-1.105 1.973c-1.507 2.656-2.85 4.982-5.02 7.152-2.75.688-2.75.688-6 0-3.96-4.399-6.372-9.744-9-15l-1 20c-10.75.125-10.75.125-13-1V42c7.04-1.173 7.04-1.173 10.75-1.25"/><path fill="#793CE0" d="M120 62c2.707 2.81 3.492 5.185 4 9-.27 2.938-.27 2.938-.812 6l-.52 3.063c-.64 2.818-1.57 5.271-2.668 7.937a88 88 0 0 0-.937 4.25c-.67 3.227-1.55 6.221-2.688 9.313-1.833 5.287-2.173 10.042-.375 15.437l11 1c-.485 4.365-1.304 8.551-2.375 12.813-.235.934-.47 1.869-.71 2.832C123 136 123 136 120 138c-6.655.684-13.395 1.063-19-3l-2.937-2c-3.144-4.572-1.996-8.726-1.063-14l3-1c.082-3.044-.024-5.072-1-8 .421-2.005.421-2.005 1.18-4.273l.816-2.5.879-2.602c3.258-9.751 3.258-9.751 4.188-19.937l-.028-2.676L106 76h-5v2h-2v-2c-3.583-1.002-3.583-1.002-7 0V66l4-1 3-1v2h5c1.231 2.463 1.072 4.28 1 7 2.423.052 2.423.052 5-1a136 136 0 0 0 3-7c2.592-2.511 3.349-3 7-3"/><path fill="#773CD9" d="M182.688 94.375c2.183.016 2.183.016 4.312.625 2.568 2.679 4.22 5.763 6 9l2.188 3.188c1.837 2.851 3.354 5.751 4.812 8.812 3.259-3.836 5.714-7.801 8.125-12.187 3.616-6.554 3.616-6.554 5.875-8.813 2.688-.27 5.291-.087 8 0 1.635 3.27 1.142 6.88 1.133 10.473l.003 2.54q0 2.659-.006 5.318c-.005 2.724 0 5.447.007 8.171q0 2.58-.004 5.158l.006 2.484c-.024 5.741-.024 5.741-1.139 6.856-1.812.133-1.812.133-4 .125l-2.187.008C214 136 214 136 213 135a61 61 0 0 1-.316-4.035l-.127-2.451-.12-2.577-.13-2.587q-.159-3.175-.307-6.35l-8 14h-6c-1.828-1.828-1.828-1.828-3.25-4.25l-1.453-2.39a80 80 0 0 1-2.344-4.594c-.83-1.944-.83-1.944-2.953-2.766l.254 2.16c.588 5.53.838 10.38-.254 15.84-3.937 1.312-6.125.243-10-1q-.037-8.09-.055-16.18-.008-2.755-.02-5.51c-.013-2.633-.018-5.266-.023-7.9l-.015-2.503c0-1.97.051-3.939.113-5.907 1-1 1-1 4.688-1.625"/><path fill="#234491" d="M247.5 42.188c2.807 2.035 5.156 4.26 7.5 6.812-1.435 5.022-3.866 7.047-8 10h-3l-2-3c-2.667-.365-2.667-.365-5.625-.187l-3.04.082L231 56c-2.032 6.982-2.032 6.982-1 14 1.772 3.154 1.772 3.154 4.813 4.563 3.748.514 5.786.06 9.187-1.563l2-3c2 0 2 0 4.5 2.188 2.34 2.631 3.458 4.497 4.5 7.812-3.294 4.515-6.229 7.388-11.797 8.617-6.635.58-12.227.598-18.203-2.617-2.875-2.5-2.875-2.5-5-5l-1.687-1.437C213.477 73.806 214.455 64.995 215 58c.982-3.827 2.808-6.712 5-10h2l.563-1.812c4.934-7.51 17.469-6.534 24.937-4"/><path fill="#244494" d="M315 45v4l4 2-1.687.813L315 53l-2.617 1.172c-2.694 1.645-2.694 1.645-2.942 4.824l.122 3.441.066 3.434c.35 2.95.684 4.71 2.371 7.129 4.197 1.893 6.334 2.175 10.813 1 3.316-1.725 3.316-1.725 4.687-4.687.708-4.69.728-9.225-1.75-13.438-.75-1.875-.75-1.875.438-5C328 48 328 48 331 46v2l4 2v3h2c2.767 5.535 3.854 11.75 2.273 17.766C337.736 74.78 336.394 78.222 333 81h-2l-.562 1.875c-1.762 2.604-3.372 3.113-6.383 3.813-6.591 1.002-12.778.546-19.055-1.688-2.754-2.754-4.28-5.558-6-9l-2-1c-2.522-7.82-1.198-15.588 1.637-23.066C300 50 300 50 302.645 49.223L305 49l1 2 2-2h3l-3-4c3.133-1.044 3.99-.934 7 0"/><path fill="#213C80" d="M328.375 42c5.852 4.459 10.563 9.844 12.625 17 .937 7.59-.02 14.392-4 21-4.115 4.517-8.851 8.186-15 9-9.184-.046-16.022-.786-22.687-7.437C295.176 76.666 294.084 71.197 293 65l-1.312 2.438C290 70 290 70 287 71c1.084-2.252 2.184-4.261 3.625-6.312 1.794-3.508 1.786-5.786 1.375-9.688-1.431-3.544-2.867-6.71-6-9-2.606-.722-2.606-.722-5-1l2 4-5 2v-2l-3.375.5C271 50 271 50 269 50l-3 1v5l-5-1-1-3c-1.351 1.124-1.351 1.124-1.114 4.051q0 2.023.016 4.047l.005 2.148c.005 2.272.018 4.544.03 6.816q.008 2.307.014 4.612.017 5.662.049 11.326h8l.184-2.3.253-3.013.247-2.988C268 74 268 74 269 71c2.758.098 2.758.098 6 1 2.117 2.871 2.117 2.871 3.875 6.438l1.805 3.558C282 85 282 85 282 87l2 1c-1.777-.125-1.777-.125-4-1-1.816-2.687-1.816-2.687-3.562-6-2.17-4.692-2.17-4.692-6.438-7l.035 2.809c.01 1.197.018 2.395.027 3.629l.036 3.62C270 87 270 87 269 88c-1.998.099-4 .13-6 .125l-3.312.008C257 88 257 88 256 87a59 59 0 0 1-.13-4.137l-.009-2.66.006-2.89-.003-2.948q0-3.093.006-6.184c.005-3.167 0-6.334-.007-9.501q0-2.997.004-5.992l-.006-2.892.01-2.66.002-2.352C256 43 256 43 257 42c4.055-.282 8.124-.232 12.188-.25l3.447-.062c10.564-.05 10.564-.05 15.365 3.312 3.665 3.749 5.672 6.928 7 12l1.563-3.625c2.769-5.52 6.52-9.19 12.257-11.52 6.361-1.71 13.237-1.727 19.555.145M308 46l3 3h-4l-1 2-1-2c-2.971.32-2.971.32-6 2-3.97 6.645-3.476 14.522-2.687 21.938.802 2.408 1.838 3.361 3.687 5.062l2 4c2.2 3.179 5.067 3.847 8.754 4.652 6.33.98 12.288.78 18.246-1.652 1.225-1.95 1.225-1.95 2-4l1.875-.812c3.902-2.181 5.54-6.479 6.938-10.563.412-5.775-.275-11.38-2.813-16.625h-2l-.312-1.937L334 49l-3-1-1-2c-2.062 2.525-3.787 4.96-5 8 .41 2.244 1.218 3.935 2.215 5.98 1.383 3.559.595 6.344-.215 10.02-2 3-2 3-5 4v-2l3-1c1.101-5.808 1.326-8.827-2-14-2.43-2.43-3.599-2.763-7-3-2.783 1.335-2.783 1.335-5 3v-2l8-3-2-3h-2v-4c-3.486-1.202-3.68-1.213-7 1"/><path fill="#6D3CC1" d="m159 94.625 3.563-.023c3.77.437 6.21 1.43 9.437 3.398l1 2a101 101 0 0 1-3 6l-2.937-.5c-4.358-.634-8.67-.59-13.063-.5v3l2.633.734C168.38 112.151 168.38 112.151 173 116c1.738 3.477 1.454 7.199 1 11-1.721 3.574-3.31 5.47-6.437 7.875-6.812 2.151-14.44 2.14-21.25-.125C143 133 143 133 141.375 131.188c-.552-3.218.262-5.267 1.625-8.188 3.682-1.227 4.601-.28 7.95 1.297 3.613 1.239 7.28.934 11.05.703v-3l-3.36-.918q-2.195-.633-4.39-1.27l-2.21-.595c-4.751-1.404-7.44-2.749-10.04-7.217-1.019-4.374-.575-7.983 1.625-11.875 4.773-4.27 9.027-5.542 15.375-5.5"/><path fill="#213E89" d="m153.75 40.75 2.297-.078L158 41c2 3 2 3 2 6a80 80 0 0 0 2.875 4.813c2.27 3.655 4.021 6.992 5.125 11.187 2.712-2.415 4.202-4.981 5.875-8.187 2.524-4.746 5.224-9.29 8.125-13.813l13 1v46h-11c-1.584-1.584-1.22-3.277-1.316-5.473l-.127-2.724-.12-2.865-.13-2.877q-.16-3.53-.307-7.061l-1.68 2.992-2.195 3.883-1.105 1.973c-1.507 2.656-2.85 4.982-5.02 7.152-2.75.688-2.75.688-6 0-2.464-2.737-4.22-5.79-6-9l-1.937-3.437L157 68l1-2c6.52 9.226 6.52 9.226 8 15 2.883-.003 2.883-.003 6-1 2.143-2.809 2.143-2.809 3.688-6.312 3.888-7.984 3.888-7.984 6.312-10.688h2v23l6-2 3 1c-.342-2.97-.342-2.97-1-6l-2-1 2-1V58h-3l1 6h-2v-2h-2V50h-3l-2-5-.875 2.188L179 50l-.895 2.375c-1.117 2.654-2.386 5-3.917 7.438l-1.458 2.394C171 64 171 64 168.3 64.262L166 64l-.562-1.937c-1.375-2.455-1.375-2.455-4.938-2.938L157 59l-2 2v-2h-3l-1 2-2-1c-1.51 3.386-1.51 3.386-2 7l2 1-.656 1.688c-1.958 5.364-2.655 9.61-2.344 15.312l9 2V67h1v21c-10.75.125-10.75.125-13-1V42c7.04-1.173 7.04-1.173 10.75-1.25"/><path fill="#7A3DDD" d="M273 97c21.52 0 21.52 0 27.977 3.71 2.715 3.072 2.571 4.873 2.398 8.915l-.102 3.477C303 116 303 116 302 118h-2v2h-2c.407 3.461 1.126 5.185 3.125 8.125L303 131l-1 3c-8.213-1.843-8.213-1.843-10.172-4.723l-.828-1.902c-1.572-3.52-1.572-3.52-4.234-4.05A57 57 0 0 0 280 123l.125 3.875c.07 2.18.07 2.18-.125 4.125-2 2-2 2-7 3zm9 8v10c5.713.592 5.713.592 10.5-2l1.5-2-2-6z"/><path fill="#783CDB" d="M242 97h9c2.153 3.858 3.393 6.551 3 11l3 1v4h2c1.125 5.75 1.125 5.75 0 8l1.89.68c2.833 1.773 3.043 3.257 3.86 6.445l.734 2.758L266 133l-4 1v2c-3.054-1.527-3.659-3.952-5-7v-3h-19l-3 6h-2v2h-6c.647-3.93 1.84-7.304 3.398-10.965l1.454-3.424 1.523-3.549 1.5-3.537c2.24-5.256 4.532-10.432 7.125-15.525m4 11-3 10h8l-4-10z"/><path fill="#793DDA" d="M308 97h32v5c-1.812 1.812-4.724 1.472-7.187 1.719-1.83.101-1.83.101-2.813 1.281a158 158 0 0 0-.316 6.66l-.063 2.014q-.097 3.195-.183 6.388l-.131 4.323q-.161 5.307-.307 10.615c-1.414.224-2.832.428-4.25.625l-2.39.352C320 136 320 136 316 134v-30l-8 1z"/><path fill="#233770" d="M212 42q.037 9.585.055 19.171.008 3.264.02 6.527c.013 3.12.018 6.24.023 9.36l.015 2.968v2.73l.007 2.415C212 87 212 87 211 88c-1.643.099-3.291.13-4.937.125l-2.715.008C201 88 201 88 199 87q-.037-9.372-.055-18.744-.008-3.19-.02-6.382c-.013-3.05-.018-6.1-.023-9.151l-.015-2.901v-2.67l-.007-2.361C199 43 199 43 200 42c1.638-.26 3.287-.46 4.938-.625.895-.095 1.791-.19 2.714-.29C210 41 210 41 212 42"/><path fill="#23439E" d="M17 139c16.625 1.583 16.625 1.583 20.063 5.125L38 146l-1 1a104 104 0 0 0-1.062 4.563l-.536 2.503L35 156h-2l.188 3.125c-.203 4.187-.915 6.384-3.188 9.875-2.93 2.387-6.31 2.47-10.031 2.395-3.356-.673-4.928-2.798-6.969-5.395-1.607-3.215-1.057-6.436-1-10h2c1.558-8.49 1.558-8.49 3-17"/><path fill="#192B66" d="M55 98h2l.367 1.977c1.3 7.16 1.3 7.16 3.633 14.023 3.15 1.05 5.388 1.101 8.688 1.063l3.011-.028L75 115l-.414 2.066q-.625 3.135-1.234 6.274l-.727 3.597c-.235 1.185-.47 2.37-.71 3.59C71 134.001 69.717 136.857 68 140c-5.802.363-9.64-.743-15-3l-1 1v3c-3.996 2.83-7.427 1.762-12 1-.09 1.013-.09 1.013-.184 2.047l-.254 2.703-.246 2.672A44 44 0 0 1 38 156h-2l.188 3.125c-.241 4.977-1.55 8.054-4.876 11.75-3.493 1.7-6.453 1.318-10.312 1.125v-1l1.898-.41c2.544-.67 4.768-1.372 7.102-2.59 1.664-3.323 1.664-3.323 2-7l.625-2.937L33 156h2q.253-2.156.5-4.312l.281-2.426c.267-2.381.267-2.381.219-5.262-6.286-1.857-12.636-3.432-19-5l-.148 2.45-.227 3.238c-.07 1.055-.14 2.111-.21 3.199-.403 3.02-1.156 5.354-2.415 8.113h-2l.438 2.082.562 2.73.563 2.708C14 166 14 166 14 169c-2.062-1.375-2.062-1.375-4-4-.332-3.422.358-6.641 1-10l.393-2.092c.446-2.31.927-4.609 1.42-6.908l.462-2.286c.495-2.151.495-2.151 1.725-5.714l4-2-10-5 1-5c3-2 3-2 7-2l2-10 2 1a478 478 0 0 1-.875 4.875l-.492 2.742C19 125 19 125 17 127c-3.125.125-3.125.125-6 0l1 3q2.188.252 4.375.5l2.46.281c2.134.253 2.134.253 4.165.219v2h2v2l2.063-.187c3.027.193 5.037 1.05 7.757 2.32 4.557 1.813 9.411 2.763 14.18 3.867-.669-3.113-.669-3.113-3.062-4.187L44 136c-.125-5.75-.125-5.75 1-8h2v2l1.73.836C51 132 51 132 53.113 133.289l2.2 1.336 2.175 1.352c3.14 1.463 3.14 1.463 9.512 1.023l5-20h-9c-2.875-.375-2.875-.375-5-2-2.526-5.532-3.393-10.975-3-17m-8 33v3h2l-1-3z"/><path fill="#543195" d="M132 7c5.826.52 10.75 1.329 16 4 1.188 2.813 1.188 2.813 1 6-1.312 3-1.312 3-3 6-.7 1.989-1.377 3.986-2 6l-6-1-.312 3.938C137.152 36.902 135.75 41.342 134 46l-5 1v2l3 2c-.366 5.97-1.958 11.096-3.918 16.735-2.587 7.543-4.515 15.24-6.482 22.962a322 322 0 0 1-1.803 6.6l-.568 2.03q-.759 2.69-1.53 5.376c-.746 3.52-.822 6.71-.699 10.297l2.371-.035 3.067-.028 3.058-.035C128 115 128 115 129 116c-.376 7.52-1.888 15.113-5 22-4.46 3.394-10.709 2.532-16 2-6.343-1.671-10.474-4.49-14-10-1.137-4.485-.898-7.47.477-11.86l1.027-3.358 1.121-3.532q1.115-3.627 2.227-7.254l1.11-3.59c1.425-4.677 2.748-9.378 4.038-14.094l.627-2.282q.69-2.514 1.373-5.03h1c.41 6.333-1.093 11.597-2.937 17.625a3104 3104 0 0 0-1.653 5.54l-.746 2.45c-1.539 5.183-1.539 5.183-.664 10.385-1 3-1 3-3 4-.927 3.66-1.22 7.233-1 11 2.74 3.95 5.508 5.539 10 7 3.286.278 3.286.278 6.688.188l3.449-.02c2.807.024 2.807.024 4.863-1.168.747-1.825.747-1.825 1.29-4.035l.663-2.451.672-2.577.695-2.587A993 993 0 0 0 127 118l-1.879.053-2.46.04c-.806.018-1.612.036-2.442.053C118 118 118 118 115.438 116.5c-2.055-3.573-2.114-6.543-1.438-10.5.892-2.789 1.922-5.494 2.992-8.219.933-2.573 1.528-4.968 2.008-7.656 1.322-7.4 3.829-14.482 6.125-21.625C126.609 62.564 128 56.14 128 50h-2l1-7 6 1c.2-1.272.2-1.272.402-2.57.605-3.47 1.356-6.876 2.16-10.305l.817-3.492L137 25l7 1c.09-1.013.09-1.013.184-2.047l.254-2.703c.08-.882.162-1.763.246-2.672A44 44 0 0 1 146 12l-2.312.563C141 13 141 13 138 12v-2l-5-1-.375 2.438L132 14l-2 1z"/><path fill="#5C389E" d="M182.688 94.375c2.183.016 2.183.016 4.312.625 2.568 2.679 4.22 5.763 6 9l2.188 3.188c1.837 2.851 3.354 5.751 4.812 8.812 3.259-3.836 5.714-7.801 8.125-12.187 3.616-6.554 3.616-6.554 5.875-8.813 2.688-.27 5.291-.087 8 0 1.635 3.27 1.142 6.88 1.133 10.473l.003 2.54q0 2.659-.006 5.318c-.005 2.724 0 5.447.007 8.171q0 2.58-.004 5.158l.006 2.484c-.024 5.741-.024 5.741-1.139 6.856-1.812.133-1.812.133-4 .125l-2.187.008C214 136 214 136 213 135a61 61 0 0 1-.316-4.035l-.127-2.451-.12-2.577-.13-2.587q-.159-3.175-.307-6.35l-8 14h-6c-1.828-1.828-1.828-1.828-3.25-4.25l-1.453-2.39a80 80 0 0 1-2.344-4.594c-.83-1.944-.83-1.944-2.953-2.766l.254 2.16c.588 5.53.838 10.38-.254 15.84-3.937 1.312-6.125.243-10-1q-.037-8.09-.055-16.18-.008-2.755-.02-5.51c-.013-2.633-.018-5.266-.023-7.9l-.015-2.503c0-1.97.051-3.939.113-5.907 1-1 1-1 4.688-1.625M180 97v36h7v-20h2l1.46 2.738 1.915 3.575.96 1.802c1.459 2.719 2.952 5.316 4.665 7.885 2.584.25 2.584.25 5 0v-3h2q1.507-2.684 3-5.375l1.688-3.023c1.462-2.414 1.462-2.414 1.312-4.602h3v21h6c1.395-1.167 1.395-1.167 1.114-4.418q0-2.278-.016-4.555l-.005-2.417c-.005-2.557-.018-5.115-.03-7.672q-.008-2.595-.014-5.19-.017-6.375-.049-12.748h-7l-1.574 2.781c-3.685 6.49-7.402 12.93-11.426 19.219-3.193-2.725-4.957-6.246-6.937-9.875-3.437-6.496-3.437-6.496-8.063-12.125z"/><path fill="#773EDB" d="m84 100 3 1v3l4 2v2h2c.247 5.31-.53 9.704-2.25 14.688l-.621 1.97c-1.64 4.873-3.542 8.011-8.164 10.389l-2.028.703-2.035.734C76 137 76 137 73 137c-.276-5.565.616-9.926 2.375-15.187l.672-2.116c1.094-3.383 2.345-6.532 3.953-9.697l.5-3.125C81 104 81 104 83 102z"/><path fill="#6937C4" d="M133 9c6.75 1.875 6.75 1.875 9 3h4c-.566 4.69-1.185 9.345-2 14l-7-1-1 9h-1v-7h-2v3c-3.748-.505-7.326-1.082-11-2v14h2c.688 1.813.688 1.813 1 4-2.043 2.951-4.728 3.773-8 5l-3 2-3-1v-6l-1.934-.367-2.504-.508-2.496-.492L102 44l-1-2q2.409.426 4.813.875l2.707.492C111 44 111 44 114 46c.688 2.625.688 2.625 1 5l.375-1.937L116 47c2.49-1.245 3.41-.777 6 0-.752-3.278-.752-3.278-4-5 .416-6.195 1.603-11.267 4-17l2.813.5c3.143.577 3.143.577 6.187.5l-3-2c.69-8.276.69-8.276 4-12z"/><path fill="#21356E" d="M247.5 42.188c2.807 2.035 5.156 4.26 7.5 6.812-1.435 5.022-3.866 7.047-8 10h-3l-2-3-3-2c3.199-.089 5.927.09 9 1l4-5c-3.229-3.745-6.278-5.53-11-7-6.83-.206-12.934 1.66-18.375 5.813C220.621 51.51 220.439 53.71 220 57l-2 1c-2.246 6.74-.972 13.67 2 20 3.161 3.8 7.153 6.846 12 8 6.548.57 12.63.04 18.375-3.437C252.261 80.99 252.261 80.99 253 78c-2.639-1.414-5.071-2.372-8-3l-1 3c-2.062.688-2.062.688-4 1v-2l-2.75.125c-3.177-.122-4.662-.369-7.25-2.125-2-3-2-3-3-6.062-.786-3.019-.786-3.019-3-4.938q1.467-2.22 2.938-4.437l1.652-2.497C230 55 230 55 231 54q3.5-.062 7 0v1l-7 1c-2.032 6.982-2.032 6.982-1 14 1.772 3.154 1.772 3.154 4.813 4.563 3.748.514 5.786.06 9.187-1.563l2-3c2 0 2 0 4.5 2.188 2.34 2.631 3.458 4.497 4.5 7.812-3.294 4.515-6.229 7.388-11.797 8.617-6.635.58-12.227.598-18.203-2.617-2.875-2.5-2.875-2.5-5-5l-1.687-1.437C213.477 73.806 214.455 64.995 215 58c.982-3.827 2.808-6.712 5-10h2l.563-1.812c4.934-7.51 17.469-6.534 24.937-4"/><path fill="#2A499F" d="M222 64v6l4-2c4 4.75 4 4.75 4 7l10 2v2c3.122-1.309 3.122-1.309 5-4 2.843-.23 4.461-.359 6.875 1.25C253 78 253 78 253.125 79.938c-2.03 3.72-6.15 5.465-10.09 6.656-6.333 1.264-11.598.811-17.246-2.395C220.9 80.921 218.294 77.763 217 72c-.125-3.375-.125-3.375 0-6 3.875-2 3.875-2 5-2"/><path fill="#5F34A8" d="m98 41 3 1h-2q-.506 2.374-1 4.75l-.562 2.672c-.55 2.8-.55 2.8-.438 6.578l3 2-1 5h3l1-4 5 1 1-5 5 1c-3.516 4.688-3.516 4.688-5 6h-4l-1 3 4 1 1 5 2-10h2a564 564 0 0 1-.875 5.375l-.492 3.023C111 72 111 72 109 74c-2.625.125-2.625.125-5 0v-7c-2.778-1.288-2.778-1.288-6-2-2.383 1.243-2.383 1.243-4 3v-2h-2l-2 10 4 2-1 6c-3 1-3 1-6 0l-.332 1.652c-.856 4.074-1.836 7.986-3.23 11.91-1.002 2.871-1.648 5.475-1.938 8.5-.449 3.533-1.288 6.378-2.605 9.668-2.728 6.922-5.219 13.833-5.895 21.27l1.645-.691 2.168-.871 2.144-.88C81 134 81 134 84 135c-8.262 4.408-8.262 4.408-13 5-1.335-3.701-.643-6.262.375-10l.836-3.125L73 124l.466-1.928c.534-2.072 1.177-4.068 1.87-6.092 1.862-5.526 3.583-11.091 5.289-16.668l.945-3.048C83.02 91.528 84.378 86.93 85 82c3.133-1.044 3.99-.934 7 0l-1-3-3-1c.589-5.495 1.332-10.72 3-16 3-1 3-1 6 0l1-4-1.937-.375L94 57c-1.564-3.127-.16-5.31.875-8.562l1.117-3.567C97 42 97 42 98 41"/><path fill="#2444A0" d="M75 55c1.284 4.624 1.343 7.783-1 12-1.822 2.422-2.703 2.95-5.742 3.469-8.404.084-8.404.084-12.445-2.531-2.8-4.538-3.065-8.026-2.376-13.25C55 52 55 52 58.688 50.5c5.867-1.052 11.78.634 16.313 4.5"/><path fill="#5D39A3" d="M241 95h11q2.595 5.656 5.188 11.313l1.462 3.189q1.457 3.175 2.905 6.355a499 499 0 0 0 2.93 6.26l1.39 2.945 1.254 2.618c1.148 3.058.947 5.258-.129 8.32l-5-1 3-2a337 337 0 0 0-1.312-4.875l-.739-2.742c-.816-2.704-.816-2.704-3.949-4.383-.408-2.712-.133-5.244 0-8h-2l-.375-1.937L256 109l-2-1c-.852-2.285-.852-2.285-1.625-5.062-.26-.92-.52-1.839-.79-2.786L251 98l-9-1-.34 2.148c-.719 3.106-1.834 5.609-3.222 8.477-2.76 5.835-5.32 11.733-7.813 17.688l-1.084 2.59Q228.268 130.95 227 134h6v-2h2l.938-2.937C237 126 237 126 238 125c2.823-.1 5.615-.139 8.438-.125l2.392-.012c5.917.01 5.917.01 8.17 1.137q1.575 3.468 3 7l1 2-4-1-2-7h-17l-1 6-1 2c-2.215.45-2.215.45-4.937.688l-2.715.261C226 136 226 136 224 135c2.43-7.885 5.675-15.296 9.063-22.812l1.642-3.678c2.034-4.542 4.07-9.058 6.295-13.51"/><path fill="#7A3DDE" d="m158.313 96.813 2.341-.038c7.04-.018 7.04-.018 10.346 2.225l-2 6h-3v-2l-14 1v7l2.938.75L158 113c.875 2.125.875 2.125 1 4-3.123-.486-5.996-.999-9-2v-2l-6-1c-.787-8.031-.787-8.031 2.438-12L149 98c2.086-2.086 6.442-1.185 9.313-1.187"/><path fill="#753CD3" d="M273 97c2.667-.055 5.333-.094 8-.125l2.254-.05c7.586-.067 13.988.777 19.746 6.175-.312 1.938-.312 1.938-1 4l-3 1v8c-4.153 2.037-7.176 2.117-11.75 1.688l-3.484-.301C281 117 281 117 280 116c-.144-4.668-.042-9.329 0-14l16-1-7-1v-2c-2.292.087-4.584.195-6.875.313l-3.867.175c-1.075.17-2.15.338-3.258.512l-2 3zm9 8v10c5.713.592 5.713.592 10.5-2l1.5-2-2-6z"/><path fill="#253774" d="M325 41c7.009 2.077 11.367 8.209 14.938 14.313 2.258 7.837 1.723 15.005-1.594 22.457-2.885 4.788-8.206 9.35-13.63 10.87-7.088.939-15.833.7-21.714-3.64-5.2-5-8.827-9.368-9.105-16.816-.018-2.732.018-5.454.105-8.184h2l1 15 3 1 2 6 3 1v2c8.171 1.189 16.158 2.167 24-1 4.749-3.865 7.83-8.581 9.813-14.375.398-5.573-.587-11.196-1.813-16.625h-2l-.625-1.687c-1.905-3.204-4.17-5.46-7.375-7.313-3.13-.715-6.174-.79-9.375-.812l-2.52-.077c-2.034-.058-4.07-.088-6.105-.111 4.89-3.26 10.282-2.431 16-2"/><path fill="#59359E" d="m155.16 102.902 3.903.035 3.91.028L166 103v2h-12v3l2.633.734C168.38 112.151 168.38 112.151 173 116c1.738 3.477 1.454 7.199 1 11-1.721 3.574-3.31 5.47-6.437 7.875-6.812 2.151-14.44 2.14-21.25-.125C143 133 143 133 141.375 131.188c-.552-3.218.262-5.267 1.625-8.188 3.686-1.229 4.603-.269 7.96 1.29 3.578 1.246 7.312 1.266 11.04.71l3-2c-.375 1.938-.375 1.938-1 4-5.574 2.787-14.014 1.064-20 0l-1 4c7.427 1.98 16.572 4.227 23.742.621 2.776-1.993 3.961-3.45 5.258-6.621.09-3.626.09-3.626-1-7-3.028-2.908-5.95-3.65-10-4.5-4.045-.85-6.966-1.602-10-4.5-.312-2.625-.312-2.625 0-5 1-1 1-1 4.16-1.098"/><path fill="#783DDB" d="M242 97h9c2.153 3.858 3.393 6.551 3 11l3 1v4h2c1.125 5.75 1.125 5.75 0 8l3 1c-4.861 3.241-7.373 2.873-13 2a97 97 0 0 0-5 0v-2l7-2c.862-2.423 1.155-3.593.223-6.035l-1.16-2.028C248.519 109.213 248 108.224 248 105h-2l-1-4c-3.118.646-3.118.646-4 3l-1-2c.938-2.625.938-2.625 2-5"/><path fill="#29499B" d="M201 61h4l-1 3 2.438-1C209 62 209 62 210 62v24h-9z"/><path fill="#57329E" d="m271 95 3 1v37l5-2 1-8c4.093-1.17 6.222-.947 10 1 1.8 2.094 1.8 2.094 3.313 4.5l1.55 2.406C296 133 296 133 296 135c-3.491-1.164-3.852-1.89-5.687-4.937l-1.325-2.153C288 126 288 126 288 124h-6v11c-3.492 1.164-6.335 1.065-10 1h-5l1-4h1l.076-3.289q.142-6.018.296-12.037.065-2.609.125-5.218.088-3.742.187-7.483l.05-2.37c.152-5.49.152-5.49 1.266-6.603"/><path fill="#753CD6" d="M245 105h3q1.3 2.616 2.563 5.25l1.44 2.953c1.043 2.925 1.229 4-.003 6.797-2 2-2 2-5.125 2.125L244 122v2l2.012-.254c8.77-1.011 8.77-1.011 12.988.254l1-2 3 1c.95 2.285.95 2.285 1.688 5.063.25.919.502 1.838.761 2.785L266 133l-4 1v2c-3.054-1.527-3.659-3.952-5-7v-3l-19-1 4-4c-.346-2.438-.346-2.438-1-5 .777-2.895.777-2.895 1.938-5.812l1.152-2.958zm1 3-3 10h8l-4-10z"/><path fill="#1D306C" d="M256 44h2l1 41h8l.184-2.3.253-3.013.247-2.988C268 74 268 74 269 71c2.758.098 2.758.098 6 1 2.117 2.871 2.117 2.871 3.875 6.438l1.805 3.558C282 85 282 85 282 87l2 1c-1.777-.125-1.777-.125-4-1-1.816-2.687-1.816-2.687-3.562-6-2.17-4.692-2.17-4.692-6.438-7l.035 2.809c.01 1.197.018 2.395.027 3.629l.036 3.62C270 87 270 87 269 88c-1.998.099-4 .13-6 .125l-3.312.008C257 88 257 88 256 87a57 57 0 0 1-.114-4.06v-2.61l.016-2.834.005-2.888c.005-3.057.018-6.114.03-9.17q.008-3.102.014-6.202.017-7.617.049-15.236"/><path fill="#213F8B" d="m201 44 5 2-1 2-2-1v3l5-2-1-3 4-1v43h-1l-1-24-4 2h-3c1-2 1-2 3-4h-4z"/><path fill="#213E88" d="m252 48 1 3c-1.875 2.563-1.875 2.563-5 5-3.428.214-6.635-.378-10-1q-2.062-.29-4.125-.562L231 54c3.996-2.83 7.427-1.762 12-1v-2h-5v-2l-2.25.625c-3.073.42-4.178-.006-6.75-1.625l1-2h2v-3c8.263-1.425 13.18-.234 20 5"/><path fill="#5F37A7" d="M106 79h1c.41 6.333-1.093 11.597-2.937 17.625a3104 3104 0 0 0-1.653 5.54l-.746 2.45c-1.539 5.183-1.539 5.183-.664 10.385-1 3-1 3-3 4-.927 3.66-1.22 7.233-1 11 2.736 3.943 5.503 5.564 10 7 3.584.24 3.584.24 7.313.125l3.8-.055L121 137l-1 3c-8.532.52-15.872.378-22.629-5.39-3.094-3.35-3.974-6.162-4.371-10.61.542-2.874.542-2.874 1.477-5.86l1.027-3.358 1.121-3.532q1.115-3.627 2.227-7.254l1.11-3.59c1.425-4.677 2.748-9.378 4.038-14.094l.627-2.282q.69-2.514 1.373-5.03"/><path fill="#563492" d="M182.688 94.375c2.183.016 2.183.016 4.312.625 2.568 2.679 4.22 5.763 6 9l2.188 3.188c1.837 2.851 3.354 5.751 4.812 8.812 3.259-3.836 5.714-7.801 8.125-12.187 3.616-6.554 3.616-6.554 5.875-8.813 2.688-.27 5.291-.087 8 0 1.2 2.4 1.115 3.894 1.098 6.57l-.01 2.715-.025 2.84-.014 2.863q-.018 3.507-.049 7.012h-1a144 144 0 0 1-1-20c-3.373-.14-3.373-.14-7 1-1.835 2.95-1.835 2.95-2.758 5.324-1.676 3.611-3.814 6.85-5.992 10.176l-1.253 1.927Q202.502 117.716 201 120c-3.579-3.203-5.796-6.825-8.062-11-3.035-5.799-3.035-5.799-6.938-11-3.605-.813-3.605-.813-7-1v13h-1q-.04-3.468-.062-6.937l-.036-3.903c.14-4.518.212-4.01 4.786-4.785"/><path fill="#182E69" d="M52 9c7.573.505 16.727 1.598 22.84 6.465C76.484 17.64 76.215 19.352 76 22h-3c-1.766 4.71-2.486 9.03-3 14l-5-1v-5h2l-.125-2.687c.126-3.344.573-5.372 2.125-8.313l3-2c-6.415-2.88-11.97-4.546-19-5l2 2c-.207 2.059-.207 2.059-.812 4.438l-.583 2.37A104 104 0 0 1 52 26h-2l.508-2.3.617-3.012.633-2.989c.546-2.922.546-2.922-1.758-5.699z"/><path fill="#492785" d="M316 104h3v30h8v-30h2v31c-9 1-9 1-13-1z"/><path fill="#26479B" d="m305 65 2 3 2 2.938c3.367 5.155 4.242 7.763 4 14.062l-1-2-2.187.625c-3.496.466-4.832.286-7.813-1.625-2.795-4.047-4.625-7.998-4-13h2l1 2 1-3h2z"/><path fill="#224394" d="m275 64 4 1v2h3v6l2-2c1.033 1.093 2.051 2.2 3.063 3.313l1.722 1.863L290 78c-1.013 3.039-1.495 4.121-4 6-2.402.387-2.402.387-5 0-1.8-2.117-1.8-2.117-3.312-4.875l-1.551-2.742C275 74 275 74 275 72l-2-1 1-1.812c1.208-2.242 1.208-2.242 1-5.188"/><path fill="#773CDC" d="M133 9c6.75 1.875 6.75 1.875 9 3h4c-.875 7.75-.875 7.75-2 10h-2v2c-4.109-1.128-8.076-2.335-12-4-.393-4.449.847-7.142 3-11"/><path fill="#25376E" d="m153.75 40.75 2.297-.078L158 41c2 3 2 3 2 6l1 3h-2l-1.562-2.937c-2.052-3.196-2.052-3.196-4.7-3.684-2.256-.23-4.47-.37-6.738-.379-2.342 12.454-.806 25.579-.092 38.16q.094 1.919.092 3.84l9 2V67h1v21c-10.75.125-10.75.125-13-1V42c7.04-1.173 7.04-1.173 10.75-1.25"/><path fill="#3C187D" d="m103 76 3 1-2 4h-5l-1 4 4 1c-.632 7.055-2.413 13.582-4.375 20.375l-.922 3.25c-.89 3.128-1.796 6.252-2.703 9.375l-.825 2.927-.777 2.702-.674 2.377c-.998 2.749-2.364 4.298-4.724 5.994l-3 1c1-3 1-3 2.412-4.22 2.391-2.68 3.053-5.874 3.998-9.264l.646-2.224c.678-2.345 1.342-4.693 2.007-7.042q.674-2.347 1.353-4.695 1.53-5.312 3.038-10.63Q98.722 91.462 100 87l-4-1 1-6 5-1z"/><path fill="#253D72" d="m182 41 13 1v46h-3v-2h2l-1-41h-2v-2l-6 1v6h-2l-2-5-.875 2.188L179 50l-.895 2.375c-1.117 2.654-2.386 5-3.917 7.438l-1.458 2.394C171 64 171 64 168.3 64.262L166 64l-1-7c3 3.75 3 3.75 3 6 2.712-2.415 4.202-4.981 5.875-8.187 2.524-4.746 5.224-9.29 8.125-13.813"/><path fill="#6034B3" d="M179 97h1v36h7l-1-2a68 68 0 0 1-.098-4.352l.01-2.578.025-2.695.014-2.719q.018-3.328.049-6.656c1.938.313 1.938.313 4 1l1 3h-4l1 2.438c1.695 6.037 1.939 11.869-1 17.562-7.875-.875-7.875-.875-9-2a82 82 0 0 1-.133-4.89l-.006-3.075.014-3.285.006-3.3c.04-7.528.3-14.963 1.119-22.45"/><path fill="#27499C" d="M267 69h2c.369 11.522.369 11.522-2 17-6.152.098-6.152.098-8 0-1-1-1-1-1.062-4.062L258 79h2v-7h6z"/><path fill="#284CA2" d="M148 64h2l.313 2.375c.463 2.955.463 2.955 3.687 4.625.293 3.258.293 3.258.188 7.125l-.083 3.883L154 85h-7l-2-10 2-1-.062-2.187c.06-2.732.455-5.156 1.062-7.813"/><path fill="#223D84" d="m19 114 2 1a478 478 0 0 1-.875 4.875l-.492 2.742C19 125 19 125 17 127c-3.125.125-3.125.125-6 0l1 3q2.188.252 4.375.5l2.46.281c2.134.253 2.134.253 4.165.219v2h2v2l2.063-.187c3.764.24 6.508 1.656 9.937 3.187 2.779.691 2.779.691 5 1l-1 2q-2.032-.434-4.062-.875l-2.286-.492c-5.97-1.424-11.78-3.297-17.59-5.258l-2.072-.695L10 132l-1-5c3.061-2.624 3.732-3 8-3z"/><path fill="#5A319F" d="M305 95q7.208-.037 14.417-.055 2.452-.008 4.906-.02c2.348-.013 4.696-.018 7.044-.023l2.223-.015c5.182 0 5.182 0 7.41 1.113.098 6.152.098 6.152 0 8-1 1-1 1-3.285 1.098l-2.777-.035-2.786-.028L330 105l1-2c2.649-.594 5.292-.742 8-1l1-5h-32v8l-3-1z"/><path fill="#793EDA" d="m100 46 9 1v6l-3 1c-.733 2.015-.733 2.015-1 4h-4l1 5h-3l.188-2.312c.08-3.076.08-3.076-3.188-5.688z"/><path fill="#2D4DA2" d="M187 65c.91 3.073 1.089 5.801 1 9h2l-1-3 1-2 3 1c.125 6.75.125 6.75-1 9 .281 2.008.61 4.01 1 6l-7 1c-.902-2.707-1.119-4.238-1.098-7.012l.01-2.295.025-2.38.014-2.417q.02-2.947.049-5.896z"/><path fill="#243470" d="M182 63h2v23l4 2-5-1-1-20c-2.546 4.515-2.546 4.515-5.085 9.035C175.442 78.63 174.119 80.88 172 83c-2.75.688-2.75.688-6 0-2.464-2.737-4.22-5.79-6-9l-1.937-3.437L157 68l1-2c6.52 9.226 6.52 9.226 8 15 2.883-.003 2.883-.003 6-1 2.143-2.809 2.143-2.809 3.688-6.312 3.888-7.984 3.888-7.984 6.312-10.688"/><path fill="#6839B9" d="M308 97h32v5l-1-4-2.79.254c-8.903.716-17.299.638-26.21-.254v3l10 2v31c-2.08-4.16-2.196-5.596-1.977-10.078l.157-3.516.195-3.656.172-3.703q.212-4.524.453-9.047l-11 1z"/><path fill="#254192" d="M285 71c4.022 1.486 5.276 3.657 7.25 7.375l1.578 2.898C295 84 295 84 295 88c-1.77.081-3.541.14-5.312.188l-2.989.105C284 88 284 88 282.145 86.488L281 85c2.56-2.011 5.046-3.628 8-5-1.199-3.083-2.477-6.063-4-9"/><path fill="#562EA1" d="M286.313 102.688c3.552.046 5.271.07 8.375 1.874 1.84 3.42 1.937 5.621 1.312 9.438-2.357 2.436-4.18 2.933-7.523 3.207-2.518.04-4.97.034-7.477-.207-1-1-1-1-1.133-3.687l.008-3.313-.008-3.312c.23-4.651 2.256-3.895 6.445-4M282 105v10c5.713.592 5.713.592 10.5-2l1.5-2-2-6z"/><path fill="#27448C" d="m156 46 3 2v2h3l-1 3h-2l1 2h3v2h-10v-2c-2.473.344-2.473.344-5 1l-1 2h-2v-4l3-1 1-3a88 88 0 0 1 5-1l1 1z"/><path fill="#5334A9" d="M79 106h2c-.75 4.362-2.07 8.49-3.437 12.688C75.626 124.734 74.01 130.72 73 137l1.645-.691 2.168-.871 2.144-.88C81 134 81 134 84 135c-8.262 4.408-8.262 4.408-13 5-1.335-3.701-.643-6.262.375-10l.836-3.125L73 124l.512-2.098c1.391-5.42 3.325-10.745 5.488-15.902"/><path fill="#2A4A9C" d="M260 58h7v5l6 1-1 3h-7v4l-7-1v-5h5l-1-2-2 1c-1.125-3.75-1.125-3.75 0-6"/><path fill="#21356F" d="m50 27 1 3-2.375.188L46 31c-1.375 2.476-1.375 2.476-2 5h-2l-.312 3.375C40.938 45.474 38.936 51.193 37 57v4h-3c1.474-7.667 3.21-15.207 5.438-22.687l.584-2.069C41.242 32.285 42.318 30.02 46 28c2.25-.687 2.25-.687 4-1"/><path fill="#2A4AA1" d="m329 78 2 1c-.312 2.375-.312 2.375-1 5-3.632 2.421-5.383 2.21-9.687 2.125l-3.575-.055L314 86l1-7h6v5l1-5h2l1 3 2-3 1 2z"/><path fill="#623BAE" d="m244.033 124.863 2.405.012 2.392-.012c5.917.01 5.917.01 8.17 1.137q1.575 3.468 3 7l1 2-4-1-2-7h-17l-1 6-1 2c-2.066.414-2.066.414-4.562.625l-2.504.227L227 136v-2h6v-2h2l.938-2.937c1.718-4.955 3.038-4.191 8.095-4.2"/><path fill="#472683" d="M241 95h1c-.519 4.83-1.486 8.585-3.625 12.938l-1.613 3.37-.862 1.793c-1.63 3.44-3.174 6.917-4.713 10.399l-.914 2.031c-1.53 3.466-2.717 6.714-3.273 10.469l-3-1c2.43-7.885 5.675-15.296 9.063-22.812l1.642-3.678C238.998 98.92 238.998 98.92 241 95"/><path fill="#15306D" d="M62 47c-3.75 2-3.75 2-6 2v2h-2l-2 11h2l2 9c-4-2-4-2-4.75-4.125L51 65h-2c-.46-8.758-.46-8.758 1.063-12.875C53.34 48.529 57.042 45.347 62 47"/><path fill="#5D369D" d="m118 37 1 4 5 1c.688 1.813.688 1.813 1 4-2.043 2.951-4.728 3.773-8 5l-3 2-3-1v-6l-1.934-.367-2.504-.508-2.496-.492L102 44l-1-2q2.409.426 4.813.875l2.707.492C111 44 111 44 114 46c.688 2.625.688 2.625 1 5l.375-1.937L116 47c2.49-1.245 3.41-.777 6 0-.752-3.278-.752-3.278-4-5-.187-2.625-.187-2.625 0-5"/><path fill="#1D3475" d="M52 9c7.31.487 14.333 1.846 21 5 1.852 2.137 1.852 2.137 3 4l-4 1-1-3c-5.554-2.901-11.85-3.512-18-4l2 2c-.207 2.059-.207 2.059-.812 4.438l-.583 2.37A104 104 0 0 1 52 26h-2l.508-2.3.617-3.012.633-2.989c.546-2.922.546-2.922-1.758-5.699z"/><path fill="#1B2D65" d="M294 60h2l1 15 3 1 2 6 3 1v2l3.75.375c3.126.382 5.539.93 8.25 2.625-3.037 1.519-5.329.694-8.55-.09-5.927-2.202-10.102-6.594-12.95-12.16-2.036-5.171-1.868-10.275-1.5-15.75"/><path fill="#32136B" d="m271 95 3 1-1 1c-.16 2.737-.26 5.452-.316 8.191l-.063 2.485q-.097 3.944-.183 7.886l-.131 5.334q-.161 6.552-.307 13.104c-2.554-2.554-2.237-4.207-2.252-7.69l.022-2.345v-2.406q.006-2.517.024-5.036c.018-2.579.02-5.157.02-7.736l.018-4.885.003-2.351c.049-5.435.049-5.435 1.165-6.551"/><path fill="#214394" d="M273 64c2 1 2 1 2.75 2.938L276 69c-2 2-2 2-4.625 2.125L269 71v-2l-2 1c-.652 2.025-.652 2.025-1 4l-1-2c-2.032.64-2.032.64-4 2-.812 2.555-.812 2.555-1 5h-2v-9l7 1v-2l-2-1c3-2 3-2 6.188-1.625L272 67z"/><path fill="#5E35A8" d="M245 105h3q1.3 2.616 2.563 5.25l1.44 2.953C253 116 253 116 252 120h-11c.568-5.455 1.946-9.91 4-15m1 3-3 10h8l-4-10z"/><path fill="#1E3B8C" d="M154 63h4v3l-2 1-1 20-10-1v-8c2 1 2 1 2.688 2.938C148 83 148 83 147 85l1.813-.562C151 84 151 84 154 85l-1-14h-3v-4h2z"/><path fill="#273E81" d="m270 52 3.813.375 2.144.21C278 53 278 53 281 55c.547 2.313.547 2.313.75 5l.234 2.688C282 65 282 65 281 67h-2v-2l-9-1c-1.573-3.67-2.144-5.443-1.125-9.375zm0 2v8c4.003.092 4.003.092 8 0 1.296-1.066 1.296-1.066 1.063-3.562L279 56c-3.135-1.858-5.375-2.201-9-2"/><path fill="#233876" d="M28 80c1.98 6.878-.583 14.36-1.937 21.25l-.514 2.719-.514 2.61-.457 2.356C24 111 24 111 22 114h-2c.647-5.48 1.897-10.583 3.438-15.875C25.173 92.12 26.71 86.118 28 80"/><path fill="#763FD1" d="M150 97q4.125-.08 8.25-.125l2.355-.05c7.12-.062 7.12-.062 10.395 2.175l-2 6h-3v-2h-13l1-2c2.723-.414 2.723-.414 6.063-.625l3.347-.227L166 100v-1h-17z"/><path fill="#172C66" d="M320 53c3.563 1 3.563 1 7 3 2.67 4.784 2.085 8.825 1 14-1.375 2.5-1.375 2.5-3 4h-3v-2l2-1c.993-4.505 1.34-6.98-.125-11.375-2.094-2.932-3.444-3.698-6.875-4.625z"/><path fill="#2D3E73" d="M185 42h10v46h-3v-2h2l-1-41h-2v-2l-1.875.625L187 44z"/><path fill="#324DA4" d="M165 72h5v6h2v-6h4c-1.059 3.403-2.009 6.014-4 9-3.125.188-3.125.188-6 0-1.478-2.957-1.06-5.742-1-9"/><path fill="#203B7E" d="m62.875 47.875 2.617-.008c2.315.123 4.29.483 6.508 1.133v5l-2.875-1.562C64.293 50.314 60.118 51.228 55 52l-1 10h-2q.212-2.188.438-4.375c.08-.812.162-1.624.246-2.46C53 53 53 53 54 51h2v-2c2.46-1.23 4.132-1.133 6.875-1.125"/><path fill="#244195" d="M230 49c4.921-.167 8.503-.248 13 2v2h-12l-2 4-4-1 2-4h2z"/><path fill="#214291" d="m225 71 5 2v2l4 1-2 1v2h-2v3l-3-1h2v-2l-8 1-2-4 5 1-1-3h2z"/><path fill="#152451" d="m72 50 4 1c.72 3.19 1.218 6.383 1.625 9.625.095.755.19 1.51.29 2.29C78 65 78 65 77 68c-3.58 2.766-6.483 4.469-11 5v-2l2.875-1.375C72.003 68.198 72.003 68.198 74 66c1.172-5.567 1.172-5.567 0-11l-2-1z"/><path fill="#1B397F" d="M232 44h3v2h2v-2h5c.625 2.375.625 2.375 1 5l-2 2h-3v-2l-2.25.625c-3.073.42-4.178-.006-6.75-1.625l1-2h2z"/><path fill="#7B3CDF" d="M145 128c12.67.964 12.67.964 18 2l-1 3c-11.522.554-11.522.554-17-3z"/><path fill="#5E31A1" d="M221 107h1c.844 6.54 1.11 12.976 1.125 19.563l.014 2.454c-.015 5.86-.015 5.86-1.139 6.983-2 .04-4 .043-6 0l-1-2 5-1z"/><path fill="#6B3DC1" d="m145 112 5 1v2l2.063.313c3.589.84 6.65 2.013 9.937 3.687l2 4-16-5v-3l-3-1z"/><path fill="#462C76" d="M305 95h34v1h-31v9l-3-1z"/><path fill="#112156" d="m58 71 1 2h4c.054 1.604.093 3.208.125 4.813l.07 2.707C63 83 63 83 61 86a124 124 0 0 0-1.625 6.188c-.39 1.63-.39 1.63-.79 3.292-.192.832-.386 1.663-.585 2.52h-1c-.395-7.011.427-12.482 3-19l1-3-3-2z"/><path fill="#5B39A4" d="M141 129h2v2c8.588 2.29 17.673 3.83 26 0-.812 1.938-.812 1.938-2 4-6.384 2.128-14.31 1.907-20.687-.25C143 133 143 133 141.5 130.813z"/><path fill="#5631C0" d="M186 112c1.938.313 1.938.313 4 1l1 3h-4l1 2.438c1.695 6.037 1.939 11.869-1 17.562l-2-1 .494-1.716c.523-2.36.62-4.417.604-6.83l-.01-2.56-.025-2.644-.014-2.691q-.018-3.28-.049-6.559"/><path fill="#223370" d="M15 141c1.313 2.181 2.055 3.462 1.793 6.035l-.605 2.028-.583 2.035A379 379 0 0 1 14 156h-2l.438 2.082.562 2.73.563 2.708C14 166 14 166 14 169c-2.062-1.375-2.062-1.375-4-4-.737-8.027 2.657-16.435 5-24"/><path fill="#26489C" d="M245 75c2.843-.23 4.461-.359 6.875 1.25C253 78 253 78 252.688 80.188L252 82l-2-1 1-2h-3l1 3-6 2-1-7h2z"/><path fill="#2D4DA3" d="M283 74c2.031.934 4.035 1.932 6 3 0 4 0 4-1.187 5.75-2.372 1.635-3.994 1.479-6.813 1.25v-5l2-1-2-1v-2z"/><path fill="#1B2E76" d="m19 114 2 1a478 478 0 0 1-.875 4.875l-.492 2.742C19 125 19 125 17 127c-3.125.125-3.125.125-6 0 .752 3.278.752 3.278 4 5l-3 1-3-2c.313-2.375.313-2.375 1-5 3-2 3-2 7-2z"/><path fill="#783CD7" d="m110 72 1 2-.937 1.813c-1.261 2.595-1.21 4.332-1.063 7.187 0 3 0 3-1 5h2l-2 5h-3l.5-2.875c.685-4.701.586-9.385.5-14.125l-3-1 2.938-.937c2.903-.758 2.903-.758 4.062-2.063"/><path fill="#234395" d="m205 70 3 4-1 2h-4l1 3-1 2h3c-1 3-1 3-2 5h-3V74l2-1 2 1v-2l-3-1z"/><path fill="#532AA8" d="M272 97h1v39h-6l1-4h3z"/><path fill="#7040D0" d="m86 128 2 2c-3.331 4.025-7.061 5.661-12 7h-3v-7h2l1 3 4-3 2 1z"/><path fill="#22347D" d="M45 128h2v2l1.734.844c2.23 1.138 4.36 2.385 6.516 3.656 4.205 2.364 8.033 3.557 12.75 4.5v1c-8.5.531-14.273-1.92-20.652-7.5C46 131 46 131 45 128"/><path fill="#543498" d="M274 95q4.375-.04 8.75-.062l2.5-.026 2.422-.01 2.222-.016c2.152.116 4.037.523 6.106 1.114v2l-23-1z"/><path fill="#234093" d="M47 126v2h-2v8l5 2-1 3c-2.875.188-2.875.188-6 0l-2-3 1-1-.125-3.312C42.003 129.92 42.516 126 47 126"/><path fill="#1E3165" d="M270 72h5q1.758 3.184 3.5 6.375l1.012 1.828C282 84.773 282 84.773 282 87l2 1c-1.777-.125-1.777-.125-4-1-1.816-2.687-1.816-2.687-3.562-6-2.17-4.692-2.17-4.692-6.438-7z"/><path fill="#1E3D8A" d="M328 66h1l3 9-2 1-1 2-1.375-1.5c-1.501-1.726-1.501-1.726-3.625-1.5l-1 2h-4v-2l3.375-1.125c3.239-1.354 3.518-1.637 5.063-5.062z"/><path fill="#6236B9" d="m99 112 2 1c-.375 2.438-.375 2.438-1 5l-2 1c-.69 2.35-.69 2.35-1.125 5.063l-.508 2.785L96 129l-3-1c1.217-9.217 1.217-9.217 5-13z"/><path fill="#23336F" d="M285 71c4.022 1.486 5.276 3.657 7.25 7.375l1.578 2.898C295 84 295 84 295 88h-10v-1h8l-1.242-2.484z"/><path fill="#1C377D" d="m151 47 2 2-4 1-1 4h-3v8h-1V49z"/><path fill="#583099" d="M132 7c4.714.48 8.666.968 13 3v2c-3.01.934-3.867 1.044-7 0v-2l-5-1-.375 2.438L132 14l-2 1z"/><path fill="#2E4FA3" d="M263 76h2v8h-5l-1 2c-1-1-1-1-1.062-4.062L258 79l1.938-.375L262 78z"/><path fill="#5D3899" d="m98 41 3 1h-2q-.506 2.374-1 4.75l-.562 2.672c-.55 2.8-.55 2.8-.438 6.578l3 2-1 4h-2l1-4-1.937-.375L94 57c-1.564-3.127-.16-5.31.875-8.562l1.117-3.567C97 42 97 42 98 41"/><path fill="#1B3778" d="m54 65 2 1v2l12 2-2 1v2c-1.625.054-3.25.093-4.875.125l-2.742.07C56 73 56 73 54 71h2l-2-3z"/><path fill="#2C4D9B" d="m299 57 3 3 2-2 3 1-1 5c-4.75-.875-4.75-.875-7-2l1 5h-2q-.04-2.22-.062-4.437l-.036-2.497C298 58 298 58 299 57"/><path fill="#304FA1" d="m229 79 1 3v-3h2v6c-3.292 0-5.085-.505-8-2-1.312-2.125-1.312-2.125-2-4 3.1-1.033 4.056-1.178 7 0"/><path fill="#203777" d="m33 62 2 1-1 6 2 1-2 1c-.83 1.852-.83 1.852-1.5 4-.719 2.188-.719 2.188-1.5 4l-2 1c.688-6.192 2.28-12.02 4-18"/><path fill="#233A83" d="M56 111c2 1.375 2 1.375 4 3v2l12 1v5l-2-2c-1.985-.26-3.971-.518-5.96-.738-2.72-.35-4.71-.78-7.04-2.262-.812-3.125-.812-3.125-1-6"/><path fill="#22459C" d="M153 71h1v14c-2 0-2 0-3.75-1.625C149 81 149 81 149.688 78c1.04-2.378 2.082-4.715 3.312-7"/><path fill="#402188" d="m109 55 5 1c-3.516 4.688-3.516 4.688-5 6h-4l-1 3h-2v-5c3.75-1.125 3.75-1.125 6 0z"/><path fill="#1C397F" d="m211 43-3 3 1 3-6 1c0-3 0-3 1-4h-2v-3c3.325-1.108 5.622-.845 9 0"/><path fill="#2E50A5" d="M313 79v6l-1-2-2.312.563C307 84 307 84 304 83l-1-3c3.215-1.607 6.436-1.057 10-1"/><path fill="#10295E" d="M45 129c2 2 2 2 2 5h4l1 5c-6.875-1.875-6.875-1.875-8-3-.125-3-.125-3 0-6z"/><path fill="#4B2885" d="m103 76 3 1-2 4h-5l-1 4 4 1v1h-5c-1.125-4.75-1.125-4.75 0-7 2.563-.625 2.563-.625 5-1z"/><path fill="#0A255C" d="M62 47c-3.75 2-3.75 2-6 2v2h-2l-.875 3.313C52 58 52 58 50 61c.192-9.128.192-9.128 3.375-12.562C58.27 45.757 58.27 45.757 62 47"/><path fill="#2B4CA2" d="m275 64 4 1c0 4 0 4-1 6l1 1v2l-3 1-1-3-2-1 1-1.812c1.208-2.242 1.208-2.242 1-5.188"/><path fill="#293D7C" d="M308 63h1l.813 3.813C311.048 71.747 312.8 73.2 317 76c-2.187.375-2.187.375-5 0-2.088-1.829-3.383-3.69-5-6v-2l-2-1a125 125 0 0 1 3-4"/><path fill="#0C1F4F" d="M294 60h2l.402 3.176.536 4.136.263 2.092c.391 2.997.84 5.72 1.799 8.596l-3-1c-2.699-5.398-2.188-11.123-2-17"/><path fill="#3354A8" d="M203 76h5v9h-5c1-2 1-2 3-4h-3z"/><path fill="#1E346E" d="m270 52 3.813.375 2.144.21C278 53 278 53 281 55c.188 3.625.188 3.625 0 7h-3v-6l-8-2z"/><path fill="#2F52A2" d="M162 62h4v2l-1 1 2 2h-2l-1 4-4-1c.875-6.875.875-6.875 2-8"/><path fill="#254691" d="m249 49 4 1-5 6-4-1 1-4h3z"/><path fill="#1D2C59" d="M149 41a196 196 0 0 1 4.375-.187l2.46-.106L158 41c2 3 2 3 2 6l1 3h-2l-1.75-2.937c-1.97-3.35-1.97-3.35-5.5-3.938L149 43z"/><path fill="#653DB8" d="M121 28h1v14l-3-1c-1.71-4.976-.009-8.426 2-13"/><path fill="#572990" d="m145 10 3 1c.856 2.926 1.387 5.082.176 7.957-.997 1.718-2.082 3.385-3.176 5.043-1.031-3.27-.964-5.86-.562-9.25l.308-2.703z"/><path fill="#753ED1" d="M118 118h9c-.468 4.056-.88 7.466-3 11-1.125-7.75-1.125-7.75 0-10h-6z"/><path fill="#7D3EE3" d="M159 114c3.313.063 3.313.063 7 1 1.59 2.281 2.165 4.299 3 7-2.312-.187-2.312-.187-5-1-1.687-2.437-1.687-2.437-3-5z"/><path fill="#5C31B4" d="m303 131 3 2-1 3h-9l-1-4 7 1z"/><path fill="#713CD1" d="m230 124 3 1c0 2 0 2-1.437 3.5L230 130l-1 2h4v2h-6c.61-3.558 1.578-6.683 3-10"/><path fill="#7F3DE4" d="m151 111 7 2 1 4c-3.123-.486-5.996-.999-9-2z"/><path fill="#5A348D" d="M339 96h2c.098 6.152.098 6.152 0 8-1 1-1 1-3.285 1.098l-2.777-.035-2.786-.028L330 105l1-2c2.649-.594 5.292-.742 8-1z"/><path fill="#234096" d="m266 79 3 1-2 6h-7v-2c3-1 3-1 4-1z"/><path fill="#26459A" d="m229 74 5 2-2 1v2h-2v3l-3-1h2v-2h-3l1-3h2z"/><path fill="#223A84" d="m73 54 2 1c1.075 4.657 1.348 7.774-1 12-1.625 1.813-1.625 1.813-3 3l-2-1 2-4h2z"/><path fill="#24396F" d="M62 11c1.775.398 3.545.819 5.313 1.25l2.988.703C73.344 14.133 74.334 15.248 76 18l-4 1-1-3c-2.091-1.24-2.091-1.24-4.562-2.187l-2.504-1.043L62 12z"/><path fill="#3E1C77" d="m292 106 4 1v7l-6 2v-2l1.563-1.312L293 111c-.23-2.655-.23-2.655-1-5"/><path fill="#24478F" d="M329 45c-1.257 2.514-2.656 3.483-5 5h-3v-5c3.29-1.097 4.713-.8 8 0"/><path fill="#5E3A9B" d="M122 25c4.22.48 6.797 1.166 10 4-4.002 1.6-7.046.293-11-1z"/><path fill="#273E7F" d="M15 141c1.536 2.048 2.065 3.456 1.758 6.012-.483 2.07-.948 4.021-1.758 5.988l-2 1q.212-2.407.438-4.812c.08-.894.162-1.787.246-2.708C14 144 14 144 15 141"/><path fill="#713DD1" d="m85 90 3 4-1.437 1.125c-2.085 2.501-2.21 4.69-2.563 7.875l-3 1q.717-2.657 1.438-5.312l.808-2.989A121 121 0 0 1 85 90"/><path fill="#1D2F67" d="M234.563 53.938 238 54v1l-7 1-2 7-3-2c4.613-6.993 4.613-6.993 8.563-7.062"/><path fill="#2A4997" d="m188 57 4 1 1 8-3 1v-6l-2-1z"/><path fill="#1A2F5D" d="m72 50 4 1c.879 3.734 1.09 7.168 1 11-2-3-2-3-2.5-5.125L74 55l-2-1z"/><path fill="#2D4A98" d="M232 51c-.75 2.438-.75 2.438-2 5-2.125.813-2.125.813-4 1v-4c3-2 3-2 6-2"/><path fill="#1B2D58" d="m70 36 4 3-2 10-3-2 1-1c.072-1.686.084-3.375.063-5.062l-.028-2.786z"/><path fill="#1F3D86" d="m50 27 1 3-2.375.188L46 31c-1.375 2.476-1.375 2.476-2 5l-2-1c3.446-6.77 3.446-6.77 6.25-7.937z"/><path fill="#5A389D" d="M250 126h7l1.438 3.375c.815 1.892 1.64 3.782 2.562 5.625l-4-1-2-7h-5z"/><path fill="#233C8F" d="M305 83h7v2l10 1v1c-6.069.253-11.162-.302-17-2z"/><path fill="#192F66" d="m182 41 3 1v8h-2l-2-5-1 2c.875-4.875.875-4.875 2-6"/><path fill="#28458D" d="m277 43-1 5-2-1v-2h-2l-1 3-2-4c2.928-.976 4.956-1.082 8-1"/><path fill="#0D235A" d="m69 26 2 1-1 9h-3c.875-7.75.875-7.75 2-10"/><path fill="#4A24B4" d="M221 129h2c.043 2 .04 4 0 6-1 1-1 1-4.062 1.063L216 136l-1-2 5-1z"/><path fill="#763DD4" d="m294 129 2.313.5c2.723.591 2.723.591 5.687.5l1 4-9-2z"/><path fill="#4A2C84" d="M288 123c3.255 3.023 5.69 6.205 8 10v2c-3.47-1.157-3.847-1.857-5.687-4.875l-1.325-2.117C288 126 288 126 288 123"/><path fill="#6A39C2" d="m170 99 1 2c-.937 2.125-.937 2.125-2 4h-3v-2h-11v-1h14z"/><path fill="#2E50A4" d="m226 68 3 4-2 2-1-2-1 2h-5c0-2 0-2 1.313-3.562C223 69 223 69 226 68"/><path fill="#1E3781" d="M162 51c1.563 1.688 1.563 1.688 3 4-.312 2.75-.312 2.75-1 5l-.812-1.937c-1.075-2.394-1.075-2.394-4.188-3.063v-2z"/><path fill="#1E3D84" d="m181 45 2 1v4h2v5h-2a328 328 0 0 1-1.562-3.875l-.88-2.18C180 47 180 47 181 45m-1 5 1 4Z"/><path fill="#18377B" d="m190 43 1 2 3-1v2l-2 1v3c-2.437-.375-2.437-.375-5-1l-1-2 4-1z"/><path fill="#7541D6" d="m106 132 3 1-2 3 3 1c-3 1-3 1-6.187-.437L101 135l1.938-.937c1.998-.898 1.998-.898 3.062-2.063"/><path fill="#1A2E5F" d="m13 124 1 3h-3c.752 3.278.752 3.278 4 5l-3 1-3-2c.313-2.375.313-2.375 1-5z"/><path fill="#6F3BCE" d="M171 118c2 3 2 3 1.813 6.563C172 128 172 128 169 130c-.263-4.332.708-7.88 2-12"/><path fill="#2A3C7C" d="M244 74v2h-2l1 3h-3v-2h-6l-1-2q2.188-.252 4.375-.5l2.46-.281C242 74 242 74 244 74"/><path fill="#6B39C9" d="m113 57 3 1v6l-4 2 1-5-2-1z"/><path fill="#233C72" d="M317.875 52.25 320 53l-1.687.813c-5.385 2.723-5.385 2.723-9.313 7.187-.375-2.25-.375-2.25 0-5 3.049-2.694 4.74-4.11 8.875-3.75"/><path fill="#2C4995" d="M227 45c0 2.621-.313 4.51-1 7l-1-2-1.375 1.5C222 53 222 53 220 53c1.491-3.795 3.757-5.61 7-8"/><path fill="#583395" d="M126 126c1.39 2.78.614 4.12-.25 7.063l-.766 2.722L124 138l-3 1q.68-2.409 1.375-4.812l.773-2.708C124 129 124 129 126 126"/><path fill="#7038D0" d="M297 120c.688 1.813.688 1.813 1 4-1.312 1.75-1.312 1.75-3 3h-2l-1 2-2-5 4 1z"/><path fill="#7240C5" d="M214 97h7v5l-1-3c-4.08 1.302-4.08 1.302-8 3z"/><path fill="#6C37C6" d="m98 76 1 2h2v-2h2l-1 4h-5v2h-2c0-3 0-3 1.5-4.687z"/><path fill="#253B71" d="M157 66c2.948 2.744 5.228 5.362 7 9l-1 3a984 984 0 0 1-3-4.875l-1.687-2.742C157 68 157 68 157 66"/><path fill="#2C4EA1" d="M281 65h2c1.688 1.813 1.688 1.813 3 4-1 3-1 3-3.062 4.188L281 74c-1.108-3.325-.845-5.622 0-9"/><path fill="#162953" d="m325 60 2 1c.167 4.921.248 8.503-2 13h-3v-2l2-1c.603-3.741 1-7.217 1-11"/><path fill="#1F3579" d="m218 51 2 1v5l-2 1-2 3c-.25-6.625-.25-6.625 2-10"/><path fill="#552395" d="m127 43 6 1-2 1.313L129 47v3h-3z"/><path fill="#723ECD" d="M77 118c2 4 2 4 2 7-2.5 2.188-2.5 2.188-5 4z"/><path fill="#4F2A8B" d="M247 106c2.96 3.364 3.923 6.692 5 11h-2l-4-10z"/><path fill="#7540C9" d="M242 97h9l1 4-1-2-3.312.5C244 100 244 100 241 100z"/><path fill="#723FCC" d="m126 41 3 1-2 1a109 109 0 0 0-1 7l-4-2 2-3a177 177 0 0 0 2-4"/><path fill="#6F3BC8" d="m133 9 4 2v2a791 791 0 0 1-5 3l-2 3c.61-3.558 1.578-6.683 3-10"/><path fill="#24376E" d="m31 166 2 3c-1.904 1.904-3.334 2.935-6.047 3.2-1.985-.011-3.97-.1-5.953-.2v-1l1.934-.586 2.503-.789 2.497-.773c2.244-.66 2.244-.66 3.066-2.852"/><path fill="#522F99" d="m89 125 3 2c-1.135 3.291-1.993 3.996-5.125 5.75L84 134c1.026-3.077 1.808-3.808 4-6z"/><path fill="#743ED0" d="M180 97c2.75-.312 2.75-.312 6 0 4 4 4 4 4 7h-2v-2l-3-1v-3h-5z"/><path fill="#2A4EA6" d="m329 78 2 1-1 5h-4l-1-3 2-2 1 2z"/><path fill="#3357AB" d="M165 72h5v6l-3-2-2 1z"/><path fill="#6C3CC3" d="m110 72 1 2a136 136 0 0 1-3 7c-2-3-2-3-2-5l-3-1 2.938-.937c2.903-.758 2.903-.758 4.062-2.063"/><path fill="#0D2866" d="M51 63h2c3 5.75 3 5.75 3 8-3.875-1.875-3.875-1.875-5-3a100 100 0 0 1 0-5"/><path fill="#6235BA" d="M280 131v5h-7l1-3c4.21-2 4.21-2 6-2"/><path fill="#4E308C" d="M164 111q1.977.89 3.938 1.813l2.214 1.019C172 115 172 115 173 118l-1.687-.875c-2.398-1.166-4.829-2.159-7.313-3.125z"/><path fill="#593AA6" d="M190 103c4.026 1.342 4.883 3.423 7 7v2c-3-1-3-1-4.168-2.848l-1.02-2.215-1.042-2.222z"/><path fill="#5B3699" d="M210 101h2c-1.333 3.588-2.83 6.836-5 10h-2c1.333-3.588 2.83-6.836 5-10"/><path fill="#733DCF" d="m148 99 1 3-3 2c-.577 1.964-.577 1.964-.687 4.125L145 112h-1c-.63-8.193-.63-8.193 2-11.562z"/><path fill="#21408E" d="m216 61 2 2 2-1 2 2-3 3-2-1-1 2z"/><path fill="#442F75" d="m144 24 1 4c-4.75 1.125-4.75 1.125-7 0v-2h6z"/><path fill="#44247E" d="M129 16c.553 2.076 1 3.844 1 6l3 1v3l-5-2z"/><path fill="#482A89" d="m145 122 8 3v1l-11-1z"/><path fill="#683FBA" d="m259 115 3 1 1 6-4-1z"/><path fill="#2F4D9C" d="M178 59v4l-5 1-1-3c3.75-2 3.75-2 6-2"/><path fill="#203972" d="m306 43 3 1-1 4h-5v-3z"/><path fill="#28386F" d="M143 42h6l-3 1-1 6-2-1z"/><path fill="#653AB6" d="m138 9 7 1v2c-3.01.934-3.867 1.044-7 0z"/><path fill="#5F429F" d="m94 128 7 6-1 3a483 483 0 0 1-3-3.375l-1.687-1.898C94 130 94 130 94 128"/><path fill="#16285F" d="m58 71 1 2h4l-1 7-2-1 1-3-3-2z"/><path fill="#25479A" d="m166 75 4 4-1 2h-3c-1.125-3.75-1.125-3.75 0-6"/><path fill="#193885" d="M245 47h6v3l-5 2z"/><path fill="#6032BB" d="m245 105 3 1-2 6h-3a85 85 0 0 1 2-7"/><path fill="#2849A1" d="m288 62 3 1v2c-2.647 1.46-3.894 2-7 2l1-3h3z"/><path fill="#4C2590" d="M103 59c2.063.438 2.063.438 4 1-1.375 2.5-1.375 2.5-3 5h-2a100 100 0 0 1 0-5z"/><path fill="#223A84" d="M243 53c-3.996 2.83-7.427 1.762-12 1 3.996-2.83 7.427-1.762 12-1"/><path fill="#2B4794" d="m287 47 4 4-3 3v-2h-2z"/><path fill="#284397" d="M243 43c2.915 1.074 4.778 1.778 7 4l-4 1v-2h-3z"/></svg>