<svg xmlns="http://www.w3.org/2000/svg" width="455" height="111"><path fill="#AE92D1" d="m356 34 3 1c1.387.1 2.778.154 4.168.176l2.459.072q2.531.064 5.062.094C377.454 35.57 383.111 37.11 388 42l2-6q7.236-.037 14.471-.055 2.464-.008 4.927-.02c2.356-.013 4.711-.018 7.067-.023l2.238-.015c1.766 0 3.532.051 5.297.113 1 1 1 1 1.098 2.848L425 45h-12l.438 4.938c.08.916.162 1.833.246 2.777.076 2.247.076 2.247 1.316 3.285.087 1.489.107 2.981.098 4.473l-.01 2.724-.026 2.865-.013 2.877Q415.03 72.47 415 76c-3.242 1.747-5.007 2.192-8.687 1.688l-2.387-.301C402 77 402 77 401 76a158 158 0 0 1-.316-6.66l-.063-2.014q-.097-3.195-.183-6.388l-.131-4.323Q400.146 51.308 400 46l-11-1 1 2c.545 6.434-.315 9.69-4 15l-2 1c1.094 3.1 2.286 5.409 4.188 8.125L390 74l-1 3c-3.38.29-6.627.425-10 0-2.437-2.187-2.437-2.187-4-5l-1.75-2.687C372 67 372 67 372 65h-6l.035 2.371c.01 1.012.018 2.024.027 3.067l.036 3.058C366 76 366 76 365 77c-1.996.203-1.996.203-4.437.25l-2.434.078L356 77c-2.622-3.933-2.251-7.266-2.195-11.824l.008-2.61c.011-2.752.037-5.502.062-8.254q.016-2.797.027-5.595.035-6.86.098-13.717zm10 11v11c5.992.656 5.992.656 11.125-1.687 1.108-2.929.952-4.388-.125-7.313-3.089-2.06-3.71-2.239-7.187-2.125z"/><path fill="#405B9B" d="M49 35c2.877 2.553 4.35 5.564 6 9l1.469 2.824A238 238 0 0 1 60 54c4.051-6.603 4.051-6.603 7.688-13.437C68.998 38.005 69.707 36.688 72 35c3.137-.293 3.137-.293 6.688-.187l3.574.082L85 35c.962 8.602 1.041 17.023.703 25.668-.08 2.055-.146 4.11-.21 6.166C85.132 76.867 85.132 76.867 84 78c-1.664.098-3.333.13-5 .125l-2.75.008C74 78 74 78 73 77a254 254 0 0 1-.562-8.562l-.131-2.444A1763 1763 0 0 1 72 60l-1.469 2.844c-5 9.204-5 9.204-8.597 11.441-2.657.37-3.654.17-5.934-1.285-2.846-3.764-4.974-7.746-7-12l-.184 3.465-.254 4.472-.119 2.288c-.33 5.662-.33 5.662-1.443 6.775-1.831.099-3.666.13-5.5.125l-3.031.008C36 78 36 78 35 77a215 215 0 0 1-.281-8.086l-.056-2.463q-.088-3.912-.163-7.826-.102-5.137-.219-10.273l-.04-2.397C34.166 42.731 34.026 40.08 33 37c5.324-2.359 10.253-3.363 16-2"/><path fill="#AD8CDA" d="M308 36v3l.035 3.563c.082 11.18-.342 22.28-1.035 33.437q-2.218.29-4.437.563l-2.497.316L298 77c-2.12-2.12-1.418-6.62-1.562-9.562l-.131-2.444A1763 1763 0 0 1 296 59l-1.61 2.809q-1.068 1.815-2.14 3.629l-1.055 1.853c-2.66 4.459-2.66 4.459-5.273 5.682C284 73 284 73 281 72a84 84 0 0 1-3.687-6.562l-.971-1.866c-.79-1.52-1.567-3.045-2.342-4.572l-.184 3.684-.253 4.754-.12 2.431c-.33 6.018-.33 6.018-1.443 7.131-1.812.133-1.812.133-4 .125l-2.187.008C264 77 264 77 263 76a246 246 0 0 1-.098-8.848l.005-2.686c.005-2.843.018-5.686.03-8.528q.008-2.885.014-5.768.017-7.085.049-14.17c3.039-.25 5.967-.36 9 0 2.123 1.804 2.123 1.804 3.504 4.305l1.553 2.707 1.505 2.863 1.612 2.84C284 55.56 284 55.56 284 58h2l.727-1.988c1.64-3.88 3.609-7.517 5.648-11.2l1.172-2.193 1.164-2.1 1.04-1.903c3.424-4.432 7.166-3.593 12.249-2.616"/><path fill="#536CA9" d="M214.922 36.598c4.781 3.226 8.74 8.785 10.078 14.402.792 8.277-.636 14.274-5.062 21.25-4.24 4.687-10.47 6.452-16.563 7.188-7.51-.974-13.27-3.765-18.375-9.438-4.096-6.342-3.9-13.653-3-21 2.403-6.593 7.523-11.377 13.813-14.312 6.916-1.492 12.687-1.245 19.109 1.91M196 49c-1.927 4.35-2.593 8.434-.875 12.938 1.621 3 1.621 3 3.625 4.562 3.425.761 5.868.406 9.25-.5 2.67-2.19 3.823-3.742 4.309-7.191.116-4.152-.064-7.215-2.309-10.809-5.154-2.712-9.501-2.907-14 1"/><path fill="#38549C" d="m155.625 34.813 2.7-.038c6.64-.014 12.222.153 17.488 4.6 3.576 4.292 4.588 6.854 4.449 12.602-.49 3.78-2.387 6.78-4.547 9.847-1.018 2.289-1.018 2.289.437 4.867l1.786 2.871c1.777 2.88 1.777 2.88 3.062 5.438l-1 3c-10.076.782-10.076.782-13.437-2.062L165 73l-1.113-1.82C161 66.438 161 66.438 161 64h-4l.035 2.809.028 3.629.035 3.62C157 77 157 77 156 78c-1.664.098-3.333.13-5 .125l-2.75.008C146 78 146 78 145 77c-.101-3.018-.14-6.013-.133-9.031l-.003-2.746q0-2.88.006-5.76c.005-2.95 0-5.9-.007-8.85q0-2.79.004-5.582l-.006-2.692c.035-9.042 2.714-7.52 10.764-7.526M157 46v8h9l1-6c-3.402-2.094-6.053-2.18-10-2"/><path fill="#2D4E95" d="M139 38c1.758 1.488 1.758 1.488 3 3 0 3.783-.988 4.986-3.562 7.813L136 51c-4-2-4-2-5.812-3.187-3.47-1.29-5.686-.895-9.188.187-2.263 3.607-3.063 5.929-2.812 10.188L119 61l.563 2.313c2.116 2.485 4.315 2.395 7.464 2.707 2.188.079 2.188.079 4.973-1.02l1-2c2.71.155 4.466.482 6.445 2.402 1.232 1.496 2.398 3.044 3.555 4.598-5.448 5.76-9.44 8.504-17.379 9.059-6.686-.15-12.326-2.705-17.18-7.266-3.999-4.975-4.997-11.29-4.714-17.535.913-7.545 3.198-12.142 9.234-16.883 8.32-5.61 17.76-4.346 26.039.625"/><path fill="#916CC7" d="m326 35 11 1c11.957 26.915 11.957 26.915 17 40-3.753.812-7.155 1.09-11 1-4-6.75-4-6.75-4-9l-16 1-3 7c-1 1-1 1-3.066 1.098l-2.497-.035-2.503-.028L310 77c-1.395-4.186.315-6.778 2-10.625l1.953-4.586 1.026-2.386a423 423 0 0 0 2.943-7.13l.93-2.298q.877-2.175 1.75-4.352c1.528-3.75 3.206-7.216 5.398-10.623m4 15c-2.608 4.845-2.608 4.845-2 10l7-1-3-9z"/><path fill="#753FCF" d="M257 39c-.615 5.538-.615 5.538-2.562 7.875L253 48l-1.937-1c-4.075-1.33-7.815-1.167-12.063-1l-1 3 3.105.953 4.083 1.297 2.04.621c4.288 1.38 7.476 2.926 10.772 6.129 1.206 3.62 1.323 6.192 1 10-2.49 4.98-4.919 6.901-10 9-8.142 1.048-15.158.696-22-4-1-3-1-3 .438-6.187.515-.929 1.03-1.857 1.562-2.813l1.871.656C236.836 66.617 241.73 67.303 248 67c-.48-1.998-.48-1.998-2-4-3.121-1.224-6.181-2.12-9.414-2.979C231.893 58.65 229.64 57.112 227 53c-1.324-2.836-.955-4.275-.437-7.437 1.666-4.13 3.63-6.39 7.437-8.563 7.64-2.801 16.257-3.17 23 2"/><path fill="#7341C2" d="M356 38c16.875 0 16.875 0 23 3v2l-14 1v13h10v5l3-2v-3l-2-1 2-3c.08-2.332.088-4.668 0-7l-3-1 1.875-.25c2.31-.563 2.31-.563 3.375-2.812L381 40c4.875 3.625 4.875 3.625 6 7 .55 6.599-.536 9.437-4 15-.775 2.771-.775 2.771-1 5l2.313.688c3.279 1.601 4.234 3.002 5.687 6.312l-1 3c-3.38.29-6.627.425-10 0-2.437-2.187-2.437-2.187-4-5l-1.75-2.625C372 67 372 67 372 64h-7v11h-9z"/><path fill="#7A8CAF" d="m92.504 34.902 3.058.035 3.067.028L101 35c1.657 3.314 1.163 7.013 1.168 10.656l.01 2.6q.007 2.724.007 5.448c.002 2.785.02 5.57.04 8.355q.005 2.642.005 5.285l.022 2.535C102.23 75.77 102.23 75.77 100 78c-2.348.23-2.348.23-5.062.188l-2.723-.02C90 78 90 78 89 77c-.101-3.018-.14-6.013-.133-9.031l-.003-2.746q0-2.88.006-5.76.005-4.425-.007-8.85 0-2.79.004-5.582l-.006-2.692c.028-7.296.028-7.296 3.643-7.437"/><path fill="#743FC9" d="M392 38h32v6h-12v32h-10l-1-31-9-1z"/><path fill="#345193" d="M146 36h15l2 2h-2l-1 2v-2h-4v17l12-1-1 3h-6v4l-6 1 1 2c.07 2.04.084 4.083.063 6.125l-.028 3.32L156 76l-6-2v2h-4z"/><path fill="#496396" d="M139 38c1.758 1.488 1.758 1.488 3 3 0 3.783-.988 4.986-3.562 7.813L136 51c-4-2-4-2-5.812-3.187-3.353-1.246-5.773-.682-9.188.187-1.963 1.917-1.963 1.917-3 4v-4l-3 1-1-1v2h-5v-4h-2l-1 6 5 2v2h-5l-1 5h-1c-.35-7.353-.255-14.228 4.77-20.05 9.128-8.43 19.597-9.334 30.23-2.95"/><path fill="#7941D5" d="M343 56c3 1 3 1 4.075 2.858l.968 2.396 1.064 2.588 1.08 2.72 1.116 2.733A837 837 0 0 1 354 76c-3.753.812-7.155 1.09-11 1-4-6.75-4-6.75-4-9l-16 1-3 7c-1 1-1 1-3.066 1.098l-2.497-.035-2.503-.028L310 77c-1.137-3.41-.916-3.863.434-7.012l.966-2.295 1.038-2.38 1.025-2.417c.837-1.969 1.686-3.933 2.537-5.896.625 1.813.625 1.813 1 4l-2 3h2l1-2 1 4 1.743-.494c2.214-.496 4.104-.62 6.366-.604l2.286.01 2.355.025 2.402.014q2.925.02 5.848.049c1.582-3.009 2.44-5.637 3-9"/><path fill="#783ED4" d="M297 37h9v38h-8V54l-4-2c-1-1-1-1-1.312-4.125.383-4.76 1.732-6.924 4.312-10.875"/><path fill="#4C5F8C" d="M49 35c2.218 1.86 2.812 3.285 4 6l-1 2-5-2v2l-2 1h5l1 3-2 3c-2.625.188-2.625.188-5 0v3h-4v3h-2l-1 20h10V57h2c-.138 3.313-.287 6.625-.437 9.938l-.12 2.865-.127 2.724-.11 2.524C48 77 48 77 47 78c-1.831.099-3.666.13-5.5.125l-3.031.008C36 78 36 78 35 77a215 215 0 0 1-.281-8.086l-.056-2.463q-.088-3.912-.163-7.826-.102-5.137-.219-10.273l-.04-2.397C34.166 42.731 34.026 40.08 33 37c5.28-2.376 10.277-3.057 16-2"/><path fill="#7A3DD8" d="M356 38c16.875 0 16.875 0 23 3v2l-15 2v17l-3 1v2h2v8h-6l-1 2z"/><path fill="#783CD6" d="M264 37h8l-1 6 4 2v5h2l1 4-2 1-1-2-4-1v22l-7 1z"/><path fill="#8049D4" d="M233 58c2.25.087 4.5.195 6.75.313l3.797.175c3.498.519 5.003 1.02 7.453 3.512.821 4.34-.91 7.255-3 11l5 1-1 2c-6.713 2.238-15.367 2.258-21.812-.812C227 73 227 73 226 70c1.438-3.187 1.438-3.187 3-6l1.871.656C236.836 66.617 241.73 67.303 248 67c-.535-1.996-.535-1.996-2-4-3.082-1.359-3.082-1.359-6.625-2.25l-3.602-1.016L233 59z"/><path fill="#5E78B2" d="M146 35c3.187-.059 6.375-.094 9.563-.125l2.712-.05c6.838-.05 12.354.056 17.662 4.8L178 42l-2 4h-2l1-4h-2v8h-2l-1-2h-2v3h5v5h-4v-2l-3 1a99 99 0 0 1-5.187.063l-2.731-.028L156 55q-.29-3.687-.562-7.375l-.17-2.117c-.381-5.281-.381-5.281.732-7.508h5v-1l-15-1zm11 11v8h9l1-6c-3.402-2.094-6.053-2.18-10-2"/><path fill="#5E75AA" d="M214.914 36.586c3.567 2.418 6.015 5.662 8.086 9.414v2h-3l-1 5-1.375-1.5c-1.501-1.726-1.501-1.726-3.625-1.5v-6h5l-1-2c-2.49.56-2.49.56-5 2-1.372 3.03-1.372 3.03-2 6l-1-2c-2.586-.468-2.586-.468-5.562-.625l-3.067-.227L199 47l3-3-2-4h-2v-2l9-1v-2l-10 2-1 4h3l-1 2-2-1v4c-2 0-2 0-3.687-1.25C191 43 191 43 191.313 40.813L192 39l-4 2c7.412-8.284 17.113-9.194 26.914-4.414"/><path fill="#C6B4DD" d="m395.271 35.861 2.229.006 2.275-.003q2.385 0 4.772.006 3.664.005 7.328-.007 2.312 0 4.625.004l2.229-.006c5.156.024 5.156.024 6.271 1.139.141 2.67.042 5.324 0 8h-12l.437 4.937.247 2.778c.076 2.247.076 2.247 1.316 3.285.087 1.489.107 2.981.098 4.473l-.01 2.724-.026 2.865-.013 2.877Q415.03 72.47 415 76c-3.242 1.747-5.007 2.192-8.688 1.687l-2.386-.3C402 77 402 77 401 76a158 158 0 0 1-.316-6.66l-.063-2.014q-.097-3.195-.184-6.389l-.13-4.322Q400.146 51.308 400 46l-11-1-1 2q.211-2.469.437-4.938l.247-2.777c.592-4.28 2.722-3.406 6.587-3.424M392 38v6l9 1 1 31h10V44h12v-6z"/><path fill="#335293" d="M81 37h3q.037 5.947.055 11.896.012 3.002.033 6.004c.017 6.791-.15 13.372-1.088 20.1q-3.5.061-7 0c-1-1-1-1-1.062-4.273.024-2.06.062-4.12.101-6.18.037-3.14-.037-5.542-1.039-8.547h4l1-3v3l3-2-1-2c-.07-1.874-.084-3.75-.062-5.625l.027-3.04L81 41l-3 1-3-.062c-3.185-.203-3.185-.203-6 2.062.375-2.437.375-2.437 1-5l2-1v2l3.375-.562C79 39 79 39 81 40z"/><path fill="#304F9D" d="m193 62 1 7 16-1v-2l2 1 2 .5c2 .5 2 .5 4 1.5v3c-6.5 3-6.5 3-11 3l-1 2c-5.633.24-10.545-.615-16-2l-.375-1.937L189 71l-2-1v-5l-1 1-2-3c3.426-1.618 5.38-2.34 9-1"/><path fill="#763FD3" d="M380 40c2.512 1.322 4.554 2.427 6.313 4.688 1.233 4.148 1.634 8.23-.176 12.21A371 371 0 0 1 383 62c-.955 2.671-.955 2.671-1 5l2 2v4l-5 1a351 351 0 0 1-2.562-3.875l-1.442-2.18L374 66c1-2 1-2 2.563-3.937 1.723-2.054 1.723-2.054 1.437-5.063l-2-1 2-3c.08-2.332.088-4.668 0-7l-3-1 4-1z"/><path fill="#743BD0" d="M335 42h2l.375 1.938L338 46l2 1 .438 2 .562 2 3 1c1.22 4.394 1.22 4.394.25 7.063L343 61l-1.043 2.078c-3.026 2.972-6.499 2.56-10.52 2.61-5.383-.106-5.383-.106-10.437 1.312l-1.875-1.5c-1.964-1.692-1.964-1.692-4.125-1.5.599-2.352 1.27-4.686 2-7l2-1v3l5 1 1 3h11v-5h-2q-.04-3.437-.062-6.875l-.036-3.867C334 44 334 44 335 42"/><path fill="#3452A0" d="m217 41 2 1v2h-5v6h2l1-2 1 2 1-5 1 3h3c.853 5.835 1.484 10.449-1 16h-2v5l-1-2h-6l1-2-2-1a93 93 0 0 1-.687-7.75l-.143-2.172c-.217-3.866-.153-7.324.83-11.078h5z"/><path fill="#365299" d="M133 63c2.71.155 4.466.482 6.445 2.402 1.232 1.496 2.398 3.044 3.555 4.598-5.535 5.852-9.458 8.416-17.488 9.004-3.623-.006-6.173-.583-9.512-2.004l-1-3 10-1 1-3h5l1-3-2 1c-2.333.04-4.667.043-7 0l-1-2 3.313.063c3.63.122 3.63.122 6.687-1.063z"/><path fill="#4C669B" d="M207 35v2l-9 1v2l3-1 1 2-1 2 4 1-2.25.688c-3.261 1.556-4.679 3.397-6.75 6.312l-3-1c-1.187-2.562-1.187-2.562-2-5l.125 3.875c.07 2.18.07 2.18-.125 4.125l-2 2-1-2 1-2h-2v3h-3v8h-1c-.351-6.963-.53-13.766 3-20 1.929-1.816 3.61-2.779 6-4l2 1-3 4 3 1v2h2v-4l3-1h-3l-1-4c4.12-1.998 7.452-2.178 12-2"/><path fill="#6A83B3" d="m78.688 34.813 3.574.082L85 35q.293 2.843.563 5.688l.316 3.199c.114 2.927-.17 5.284-.879 8.113h-1V37h-3v3H70v3l2-2c2.164-.195 2.164-.195 4.625-.125l2.477.055L81 41v8h-5v-3h-2v4h-5v-3h-3v3h-2c4.792-15.481 4.792-15.481 14.688-15.187"/><path fill="#29478B" d="M99 48h1v28h-9V51l2 3-1 2 2 1h-2l2 5v-2h2l1-2-2-2h2zm-1 7 1 2Z"/><path fill="#91A3CA" d="m133 36-3 1 1 3h-6l-1-3v3c-3.522.08-6.62.04-10-1l1 2h2v5l-3 1v3h-5v-4h-2l-1 6 5 2v2h-5l-1 5h-1c-.35-7.353-.255-14.228 4.77-20.05 6.51-6.013 16.106-10.366 24.23-4.95"/><path fill="#8E61D2" d="M316 57c.625 1.813.625 1.813 1 4l-2 3h2l1-2 1 4 20 1v1l-16 1-3 7c-1 1-1 1-3.066 1.098l-2.497-.035-2.503-.028L310 77c-1.137-3.41-.916-3.863.434-7.012l.966-2.295 1.038-2.38 1.025-2.417c.837-1.969 1.686-3.933 2.537-5.896"/><path fill="#2C478A" d="M154 43h2v12l12-1-1 3h-6v4l-6 1 1 2c.07 2.04.084 4.083.063 6.125l-.028 3.32L156 76l-4-1-1-6h2l1-4-3-1v3l-2-1 1-3-2-1 3-4 2 1-.062-2.937C153 53 153 53 154 52l-3-1-1 2 1-4 2 1-1-3c.938-2.187.938-2.187 2-4"/><path fill="#3959A5" d="m109 58 2 1v6l-2 1 2.5 1.813L114 70v3l2-6h4l1-2 2 2c2.21.243 2.21.243 4.625.125l2.477-.055L132 67l-1 4h-5l1 2c-3.859 1.436-6.898 2.114-11 2l-2 1c-7.84-6.1-7.84-6.1-9-11v-4h4z"/><path fill="#2B4B92" d="M54 51h2l.75 1.875C58.206 55.351 59.378 55.951 62 57v2l3 1h-3v4l2 1c-.187 1.875-.187 1.875-1 4-2.562 1.25-2.562 1.25-5 2l-.875-1.937C56.172 66.848 56.172 66.848 54 66l-1-3 1-2h-2c-2-3-2-3-2-6l4 1-.562-1.937L53 52z"/><path fill="#793CD8" d="M253 55c2.328.931 3.744 1.654 5.25 3.688 1.54 4.746 1.243 8.227-.812 12.75C255 74 255 74 251.25 74.375L248 74c0-3 0-3 1-4.875 1.248-2.651 1.435-4.225 1-7.125-1.938-2.188-1.938-2.188-4-4v-2l6 1v2l4 1z"/><path fill="#3D5BA4" d="m44 50 3 1-2 1v9l-3 1v2h2l-1 8h-2l3 3h-5c-1.125-3.75-1.125-3.75 0-6l-2-2c-.195-3.04-.195-3.04-.125-6.625l.055-3.602L37 54l1 2h2v-3h4zm-4 17 1 2Z"/><path fill="#7D93BE" d="M146 35c3.23-.03 6.458-.047 9.688-.062l2.763-.026 2.686-.01 2.46-.016c2.552.121 4.913.554 7.403 1.114v1h-5v3l-3 1v2l-5 1 9 2v-3l-3-1c1-1 1-1 3.563-1.062L170 41l-1 6c-3.297 1.099-4.405.871-7.687.063l-2.45-.59L157 46v8h9v1h-10q-.29-3.687-.562-7.375l-.17-2.117c-.381-5.281-.381-5.281.732-7.508h5v-1l-15-1z"/><path fill="#753DD4" d="m297 37 1 3 7-1-1 9-2-1 1-2-2 1-.875 3C299 52 299 52 297 53h-2c-2-2-2-2-2.375-5.187.46-4.679 1.83-6.917 4.375-10.813"/><path fill="#6A3BBC" d="M356 38c16.875 0 16.875 0 23 3v2l-15 1v-4h-5c-1.158 3.475-1.228 6.673-1.316 10.293l-.063 2.14q-.097 3.377-.183 6.755l-.131 4.583Q357.147 69.386 357 75h-1z"/><path fill="#6B7CA3" d="M84 52h1c.029 4.146.047 8.292.063 12.438l.025 3.587.01 3.409.016 3.158C85 77 85 77 84 78c-1.664.098-3.333.13-5 .125l-2.75.008C74 78 74 78 73 77a74 74 0 0 1-.316-4.473l-.127-2.724-.12-2.865-.13-2.877Q72.147 60.53 72 57l2-1c1.95 4.077 2.216 7.317 2.125 11.813l-.055 3.519L76 74l7 1z"/><path fill="#7D8EB8" d="M223 48c2.859 4.288 2.478 7.969 2 13-1.213 5.391-3.622 10.485-8 14-5.47 2.99-10.721 4.814-17 4-2.759-.855-5.331-1.876-8-3 2.91-1.455 4.958-.635 8.125-.062l3.32.59L206 77l1-3 3.25-.437c2.667-.4 5.164-.839 7.75-1.563v-3h2v-5h2q.253-2.874.5-5.75l.281-3.234c.17-2.334.219-4.676.219-7.016"/><path fill="#9FACCA" d="M33 37h3c.607 13.005 1.188 25.979 1 39h10V57h2c-.138 3.313-.287 6.625-.437 9.938l-.12 2.865-.127 2.724-.11 2.524C48 77 48 77 47 78c-1.831.099-3.666.13-5.5.125l-3.031.008C36 78 36 78 35 77a215 215 0 0 1-.281-8.086l-.056-2.463q-.088-3.912-.163-7.826-.102-5.137-.219-10.273l-.04-2.397C34.166 42.731 34.026 40.08 33 37"/><path fill="#C7B0E5" d="M263 36h9v1h-8v38l7-1-.035-1.836c-.066-6.123.31-12.085 1.035-18.164 2.137 3.205 2.227 3.787 2.012 7.414l-.143 2.555-.182 2.656-.146 2.68c-.397 6.55-.397 6.55-1.541 7.695-1.812.133-1.812.133-4 .125l-2.187.008C264 77 264 77 263 76a246 246 0 0 1-.098-8.848l.005-2.686c.005-2.843.018-5.686.03-8.528q.008-2.885.014-5.768.017-7.085.049-14.17"/><path fill="#BCA5DA" d="M257 39c-.615 5.538-.615 5.538-2.562 7.875L253 48l-1.937-.937C247.08 45.68 243.183 45.346 239 45v-1h15v-2h2v-2h-3v-2l-16-1v2l-1.875.75c-2.476 1.456-3.076 2.628-4.125 5.25h-3v8c-2.004-2.783-2.004-3.975-1.5-7.437 1.725-4.097 3.696-6.39 7.5-8.563 7.64-2.801 16.257-3.17 23 2"/><path fill="#4964A2" d="m217 41 2 1v2h-5v6h2l1-2c2.189 11.217 2.189 11.217-1 16h-4q-.293-3.843-.562-7.687l-.17-2.186c-.268-3.9-.277-7.338.732-11.127h5z"/><path fill="#793ED8" d="M327 39h8v2h-2v2h-2v2h-2v2h-2v10l-6-2-1-5 4-1 1-7h2z"/><path fill="#926FC8" d="M343 56c3 1 3 1 4.075 2.858l.968 2.396 1.064 2.588 1.08 2.72 1.116 2.733A837 837 0 0 1 354 76c-3.753.812-7.155 1.09-11 1l-2-5h2l1-2 1 2 3 1 1-4h-2q-1.005-2.685-2-5.375l-1.125-3.023C343 58 343 58 343 56"/><path fill="#405A91" d="M39 41h5l1 3h5l1 3-2 3c-2.625.188-2.625.188-5 0v3h-4c-1.806-4.462-2.117-7.31-1-12"/><path fill="#6F45B0" d="M298 37h8v38h-8V54h-2v-2h3v22h6V39l-8 2z"/><path fill="#96A4C2" d="m78.75 34.75 3.547.11L85 35q.293 2.843.563 5.688l.316 3.199c.114 2.927-.17 5.284-.879 8.113h-1V37h-3v3H70l-2 6h-2c1.887-8.176 4.032-11.599 12.75-11.25"/><path fill="#946BD2" d="M318 52c3.804 1.099 6.438 1.925 9 5l2 2c3.597-.323 3.597-.323 7-1v5q-2.686.118-5.375.188l-3.023.105L325 63l-2-3-2-.437c-2-.563-2-.563-3.312-2.438C317 55 317 55 318 52"/><path fill="#A286CF" d="M381 38c2.915 1.074 4.778 1.778 7 4 .125 2.625.125 2.625 0 5h2c.452 6.44-.306 9.676-4 15l-2 1 1 5h-4c1.641-7.448 1.641-7.448 3.625-10.5 1.933-3.515 1.982-6.569 1.375-10.5-1.282-2.748-1.282-2.748-3-5a174 174 0 0 1-2-4"/><path fill="#637FAF" d="M154 38h2v5l-2 1-.5 3-.5 3-2 1 4 1-2 4h-5V41l5-1z"/><path fill="#8B9AB8" d="M145 36h1v40l3-1 1-2 5 2 1-11h1q.039 3.219.063 6.438l.035 3.62C157 77 157 77 156 78c-1.664.098-3.333.13-5 .125l-2.75.008C146 78 146 78 145 77c-.089-3.03-.115-6.037-.098-9.066l.005-2.754c.005-2.914.018-5.828.03-8.743q.008-2.954.014-5.912.017-7.262.049-14.525"/><path fill="#28407C" d="M81 37h3v29h-1l-1-14h-1V41l-3 1-3-.062c-3.185-.203-3.185-.203-6 2.062.375-2.437.375-2.437 1-5l2-1v2l3.375-.562C79 39 79 39 81 40z"/><path fill="#956DD1" d="M233 58c2.25.087 4.5.195 6.75.313l3.797.175c3.499.519 5.008 1.012 7.453 3.512.526 2.929.176 4.567-.937 7.313C246.754 72.019 243.11 71.31 239 71l-1-2-3-2h13c-1.557-4.204-1.557-4.204-5.04-5.266l-3.585-.984-3.602-1.016L233 59z"/><path fill="#8D63CF" d="M335 42h2l.375 1.938L338 46l2 1 .438 2 .562 2 3 1 1 5-1.812-1c-2.242-1.208-2.242-1.208-5.188-1-1.625 1.458-1.625 1.458-3 3h-1q-.04-3.437-.062-6.875l-.036-3.867C334 44 334 44 335 42"/><path fill="#9C7AD0" d="m229 64 6 2c-3 1-3 1-5 1l-1 5 20 3v2c-15.062.762-15.062.762-22-4-1-3-1-3 .438-6.187.515-.929 1.03-1.857 1.562-2.813"/><path fill="#773ED4" d="m242.125 38.938 3.883.027L249 39l-1 2h5v2h-18l-1 5-3-3c2.344-6.53 4.387-6.124 11.125-6.062"/><path fill="#5770A2" d="M112 51c3 1 3 1 4 3l2-2 .184 1.828.254 2.422.246 2.39c.292 2.184.737 4.237 1.316 6.36-1.75.75-1.75.75-4 1-2.25-1.25-2.25-1.25-4-4-.34-3.69-.23-7.305 0-11"/><path fill="#A17ED6" d="m237 45 2 1-1 3 15 5v1h-6v-2h-7l-2 4h-8l-2-4 8 2-1-9z"/><path fill="#7346BB" d="M237 37q3.438-.04 6.875-.062l3.867-.036C251 37 251 37 253 38v2h3v2h-2v2l-3.176.184-4.137.254-2.091.119c-3.068.192-5.666.466-8.596 1.443l1-3h16v-2l-6 1 1-2-11-1z"/><path fill="#3B5AA4" d="m75 61 3 1-1 1 4 2v4l-3 1h3l1 5c-2 .043-4 .04-6 0-1-1-1-1-1.098-3.941l.035-3.621.028-3.63z"/><path fill="#6B80A7" d="M53 43c2.406 2.185 3.795 4.26 5.188 7.188l1.042 2.167L60 54l4-4v6c-1.75.688-1.75.688-4 1-2.25-1.25-2.25-1.25-4-3v-3l-2 1v4h-5v-5l2.438-.875c2.695-.858 2.695-.858 3.562-3.125h-2z"/><path fill="#8D61D0" d="M292 46h1l.813 2.813c1.098 2.95 1.811 4.243 4.187 6.187h-2l-1 5-1-2h-3v-2l-5 2c1.566-4.308 3.683-8.062 6-12"/><path fill="#5B73A7" d="M128 73h5l2 4c-5.734 2.12-11.014 2.56-17 1-1.797-1.55-1.797-1.55-3-3 2.728-1.364 4.61-.878 7.625-.562l3.04.308L128 75z"/><path fill="#4F69A8" d="m109 58 2 1v6l-2 1 2.5 1.688C114 70 114 70 114.313 72.75L114 75c-3.83-1.504-5.78-3.557-8-7-.75-3.812-.75-3.812-1-7h4z"/><path fill="#8761C2" d="M272 37c3.247 3.848 5.825 7.835 8.313 12.188l1.126 1.904c.92 1.6 1.748 3.251 2.561 4.908l-1 2-3-1-1-5h-2v-2h-2l-.875-2.937c-.767-3.17-.767-3.17-3.125-4.063z"/><path fill="#324C85" d="M207 35v2l-9 1v2l3-1 1 2-1 2 4 1c-5.625 3-5.625 3-9 3v-5l3-1h-3l-1-4c4.12-1.998 7.452-2.178 12-2"/><path fill="#647CAD" d="M112 41v5l2 1v3h-5v-4h-2l-1 6 5 2v2h-5l-1 5h-1c-.231-5.66-.194-10.671 2-16 4.205-4 4.205-4 6-4"/><path fill="#849AC5" d="m208 34 3 2-2.266-.07-2.984-.055-2.953-.07C199.98 36 198.39 36.555 196 38v3h3l-1 2-2-1v4c-2 0-2 0-3.687-1.25C191 43 191 43 191.313 40.813L192 39l-4 2c5.68-6.348 11.647-8.082 20-7"/><path fill="#2E4986" d="m44 41 1 2h2v-2l6 2v4h2l-1 3-5 1v2l2 1h-2l2 5h-2v-2h-2c.857-8.571.857-8.571 3-12h-6z"/><path fill="#5B71A8" d="M178 44c2 2 2 2 2.25 5.813-.075 3.44-.695 6.076-2.25 9.187-2-1-2-1-4-3-.393-3.095-.619-5.043 0-8 2-2.5 2-2.5 4-4"/><path fill="#8493B7" d="M174 64c2.95 3.46 5.259 6.784 7 11l-1 3h-11l-1-2h8l1-5h-3z"/><path fill="#274593" d="M166 61c3.576 0 5.053 1.088 8 3l-1 4-5 1 2 1-3 1-4-4 3-1z"/><path fill="#6D45AD" d="M264 37h8v2h-6v36h-2z"/><path fill="#324C85" d="M166 37h5l-3 1 5 1v2h-2v5h-1v-5l-5 1 2 1v3l-10-1 1-2h2l1-2v2h2l-1-3h4z"/><path fill="#274383" d="M46 54h1v22H37v-9l2-1c1.125 3.75 1.125 3.75 0 6 2.029 2.372 2.029 2.372 6 3z"/><path fill="#6C88B8" d="M92 38h5v12c-4.202-2.976-4.202-2.976-6-5-.437-3.25-.437-3.25 0-6z"/><path fill="#2C488A" d="M173 42h2l-1 4h2l1-3v4l-3 1v5l2 1h-2l-1 2-1-3 1-2h-2l-1 2v-2h-2v-3l3-1v3h2zm-3 12 1 2 2 1-4 2-1-3h2z"/><path fill="#576995" d="M146 36q3.688-.08 7.375-.125l2.117-.05c1.837-.018 3.674.072 5.508.175l2 2h-2l-1 2v-2h-6v2h-8z"/><path fill="#2D4785" d="M186 44c2 3 2 3 2 5h3l-1 6-2-2 1-2h-2v3h-3v8h-1c-.333-6.816-.242-11.921 3-18"/><path fill="#693DB2" d="M381 43c2 2 2 2 2.313 4.813C382.96 51.4 382.244 53.195 380 56c-2.187.813-2.187.813-4 1l1-1.562c1.32-3.218 1.132-5.995 1-9.438l-3-1 1.875-.437c2.158-.495 2.158-.495 4.125-1.563"/><path fill="#9D77D6" d="M316 57c.625 1.813.625 1.813 1 4l-2 3h2l1 3-1.875.688c-2.74 1.691-3.175 3.304-4.125 6.312h-2c.505-6.23 3.326-11.455 6-17"/><path fill="#5876B2" d="M92 51h5c1.35 4.05.884 6.913 0 11l-1-2h-2v2l-2-1z"/><path fill="#BBA3D8" d="M253 55c2.328.931 3.744 1.654 5.25 3.688 1.074 3.31 1.109 5.846.75 9.312-2 3.438-2 3.438-4 6l-3-1v-2h3v-5h1c.48-4.773.48-4.773-1.5-8.875L253 56z"/><path fill="#2F497F" d="M121 36h6l-2 1 .625 1.813C126 41 126 41 124 44v-3h-2l-1 3-1-2-4 2 1-3-3 1v-4l10 2v-3z"/><path fill="#3152A2" d="m151 64 4 1-1.562 2.313c-.475.886-.95 1.773-1.438 2.687l1 3-2 2c-2.125-.375-2.125-.375-4-1l1-7h3z"/><path fill="#7B4FC2" d="M323 65h17l2 5-2 2-1-5h-17z"/><path fill="#7A48C4" d="m270 51 6 2 1 7-3-1-1-3-1 8h-1c-1.102-4.41-1.077-8.484-1-13"/><path fill="#ABBBD8" d="M146 35c3.23-.03 6.458-.047 9.688-.062l2.763-.026 2.686-.01 2.46-.016c2.552.121 4.913.554 7.403 1.114v1h-5v3h-5v-3l-15-1z"/><path fill="#314C88" d="m67 53 3 1-1 2h2v-3l3 1c-.687 2.875-.687 2.875-2 6-2.625 1.375-2.625 1.375-5 2l-.25-1.875c-.563-2.31-.563-2.31-2.812-3.375L62 56h6z"/><path fill="#7E8DB3" d="m43.625 34.938 3.04.027L49 35l2 4-7-2v3h-6l-2-4c2.645-1.322 4.678-1.097 7.625-1.062"/><path fill="#2A4994" d="M78 61h5v14l-2-2v-3h-3l1-2 2 1c-.195-1.95-.195-1.95-1-4-1.984-1.284-1.984-1.284-4-2z"/><path fill="#2B4793" d="m132 67-1 4h-5l1 2-7 2c1-3 1-3 3-5v-2c6.75-1 6.75-1 9-1"/><path fill="#3656A4" d="M64 64c-.187 2.375-.187 2.375-1 5-2.562 1.313-2.562 1.313-5 2-2-2-2-2-2.125-4.625L56 64c2.862-1.43 4.934-.6 8 0"/><path fill="#8899BE" d="M223 48c2.848 4.272 2.51 7.984 2 13-.786 2.832-1.801 5.302-3 8h-2v-5h2q.253-2.874.5-5.75l.281-3.234c.17-2.334.219-4.676.219-7.016"/><path fill="#8195BA" d="M133 63c2.313.25 2.313.25 5 1l3 4h-18l-1-2 3.313.063c3.63.122 3.63.122 6.687-1.063z"/><path fill="#703FC2" d="M291 56v2h3l-1 3h-2l-1 4v-4h-2l-1 2-3-3h2l1-3c2-1 2-1 4-1"/><path fill="#753CCE" d="M335 42h2c1.604 3.508 2.22 6.144 2 10l-3-1v4h-2a888 888 0 0 1-.062-5.375l-.036-3.023C334 44 334 44 335 42"/><path fill="#2E4E9C" d="m112 64 8 1v2l-4 2 3 1h-4v2l2 1-4 1z"/><path fill="#9266D4" d="m293 60 1 2c-.777 1.727-.777 1.727-1.937 3.625L290 69l-2-3-2.062-.5L284 65l-1-3 3.875-.437c2.382-.27 3.97-.485 6.125-1.563"/><path fill="#304782" d="M146 40h7v1h-5l1 13h-2l-1 2z"/><path fill="#314FA1" d="m214 68 4 1v3c-6.625 3.125-6.625 3.125-10 2l1-2-1-2h6z"/><path fill="#B295DC" d="M233 58c2.292.06 4.584.149 6.875.25l3.867.14C247 59 247 59 248.47 60.907c.612 2.415.361 3.77-.469 6.094l-.586-1.86c-2.088-3.161-4.449-3.404-8.039-4.39l-3.602-1.016L233 59z"/><path fill="#3D5490" d="m168 55-1 2h-6v2h-7v-2h2v-2q2.437-.29 4.875-.562l2.742-.317C166 54 166 54 168 55"/><path fill="#6C86B5" d="M191 45c2 1 2 1 3.125 2.938 1.246 4.36 1.032 8.558.875 13.062l-1-2-2-1 1-2h-2z"/><path fill="#566F9E" d="M44 37c2.25-.25 2.25-.25 5 0 2.313 2 2.313 2 4 4l-1 2-5-2v2h-2z"/><path fill="#C8B8E0" d="M385 68c2.757 2.49 4.607 4.205 5 8-1 1-1 1-3.285 1.098l-2.777-.035-2.786-.028L379 77l-1-2h10l-2-1c-.625-3.062-.625-3.062-1-6"/><path fill="#4964A0" d="M78 44h1v5l4 1-1 5-3 1v-3h-3v-2h2l-.562-1.812C77 47 77 47 78 44"/><path fill="#9D75DB" d="m297 37 1 2-1 3 4 1-2 4-6-1c1.059-3.403 2.009-6.014 4-9"/><path fill="#A488CE" d="M234.25 38.25 236 39l-1.937 1.875C231.96 42.826 231.96 42.826 231 45h-3v8c-1.125-1.562-1.125-1.562-2-4 .837-4.688 2.337-11.407 8.25-10.75"/><path fill="#2F53A1" d="m98 65 2 3-1 2h-2l1 3-1 2h-4l-1-5h3v-3h3z"/><path fill="#4E64A4" d="M132 67c7.429-.286 7.429-.286 11 2a159 159 0 0 1-3 5h-1l-1-5-3 2-2 1z"/><path fill="#2C50A1" d="m40 64 4 2-1 6h-2l3 3h-5c-1.6-4.002-.293-7.046 1-11m0 3 1 2Z"/><path fill="#AA8CD9" d="M320 67h19v1l-16 1-2 6-2-2z"/><path fill="#6E3AC1" d="m318 56 1 3h4l-1 5h-7c1.875-6.875 1.875-6.875 3-8"/><path fill="#4B67A4" d="M188 57h4v2h2c1.625 2 1.625 2 3 4l-1 2h-3v-3l-4-1-1 2z"/><path fill="#6C82B4" d="m140 40 2 1c-.35 3.242-.562 4.615-3.062 6.813L137 49v-3h-2v-5h2l1 2z"/><path fill="#6E82B2" d="m119 41 2 1v4l2 1-5 5v-4l-3 1v-3h2z"/><path fill="#783FD7" d="m231 68 6 1 1 4h-8z"/><path fill="#284894" d="M193 62v2h-2v3h-3l-1 3v-5l-1 1-2-3c3.426-1.618 5.38-2.34 9-1"/><path fill="#A17DD7" d="M376 46h2c1.25 6.625 1.25 6.625-1 10 .802 2.671.802 2.671 2 5l-4 1c-.687-1.625-.687-1.625-1-4l1.5-2.875c1.744-3.634 1.502-5.299.5-9.125"/><path fill="#30497D" d="M114 44h1v5l4-2-3 9-2-4-3-1 1-3v2h2l-1-3z"/><path fill="#5873B4" d="M214 44h5v9l-3-3h-2z"/><path fill="#8094C1" d="M129 41h5v6c-4.002 1.6-7.046.293-11-1v-1h8v-2h-2z"/><path fill="#7A91BD" d="M39 41h5v8h-2v-3h-2l-1 4c-.845-3.378-1.108-5.675 0-9"/><path fill="#AC91CE" d="m229 64 6 2c-3 1-3 1-5 1l-1 5 5 1-4 2-4-3c1.875-5.75 1.875-5.75 3-8"/><path fill="#657CAD" d="M107 67c4.75.75 4.75.75 7 3 .125 2.625.125 2.625 0 5-2.862-1.283-5.025-2.53-7-5z"/><path fill="#2E4992" d="m219 45 1 3h3v7l-5-1z"/><path fill="#6279A7" d="m68 44 1 2h5v4h-5v-3h-3v3h-2l1-4h3z"/><path fill="#657BAB" d="M173.563 37.625c3.025 1.707 3.49 3.106 4.437 6.375l-4 2 1-4-4-1h2v-2l-5 1v-2c3-1 3-1 5.563-.375"/><path fill="#7149B2" d="M383 67c3.082 2.784 3.952 3.808 5 8h-10l-1-4 2 1v2l5-1z"/><path fill="#3255AA" d="M126 70h7v3h-3l-1 2h-8l1.938-1.375c2.159-1.464 2.159-1.464 3.062-3.625"/><path fill="#5A75B4" d="m211 61 1 3c2.015.733 2.015.733 4 1l-2 1 5 1v2h-8v-2l-3-2z"/><path fill="#7387B0" d="M49 59h3v2h2l-1 4 2 1c.625 2.563.625 2.563 1 5-3.285-2.792-5.013-6.232-7-10z"/><path fill="#6D3EC0" d="m228 45 3 1 .375 2.25c.58 2.551 1.362 4.477 2.625 6.75-4.875-.875-4.875-.875-6-2-.141-2.67-.042-5.324 0-8"/><path fill="#AE91D5" d="M337 38c1.682 2.523 2.901 4.81 4.125 7.563l1.07 2.378C343 50 343 50 343 52l-3-1v-4l-3-1z"/><path fill="#B49BD7" d="M324 39c1.072 3.652.764 6.264 0 10l-3 1-2 2c.607-4.86 2.728-8.74 5-13"/><path fill="#F1E2FD" d="m356 34 3 1c1.48.146 2.964.247 4.45.316l2.568.127 2.67.12 2.705.13q3.303.159 6.607.307v1h-23l-1-2z"/><path fill="#734BB6" d="m230 66 16 3v1c-5.126.103-9.95.036-15-1l-2 4-1-2z"/><path fill="#A584D6" d="m327 47 5 1v2h-2l-.375 2.375C329 55 329 55 327 57z"/><path fill="#30497E" d="M90 37h10v7l-3 1v-7l-6 1z"/><path fill="#713CC4" d="M321 49h2l1 3 3-1v6l-6-2a88 88 0 0 1-1-5z"/><path fill="#4F6CAA" d="m149 49 2 2c2.069.643 2.069.643 4 1l-2 4h-5z"/><path fill="#395083" d="m37 37 1 3h6l-4 2 1 1a56.5 56.5 0 0 1-4 7z"/><path fill="#43598F" d="M207 35v2l-1.934.148-2.504.227c-.823.07-1.647.14-2.496.21L198 38l-1 2v-2l-2-1c4.12-1.998 7.452-2.178 12-2"/><path fill="#29458C" d="M99 68h1v8h-9l3-1 1-2v2h2v-5h2z"/><path fill="#264385" d="m105 53 3 1v2l3 1h-2v4h-4z"/><path fill="#425A8D" d="M122 41h2l1 2h6l1 3h-11z"/><path fill="#6079AC" d="M94.563 37.938 97 38v3h-5v2h2v3l-3-1c-.043-2-.04-4 0-6 1-1 1-1 3.563-1.062"/><path fill="#768BB7" d="M122 35h11l-3 2 1 3h-6v-3z"/><path fill="#31519E" d="M99 59v5l-7 1c.75-2.437.75-2.437 2-5 1.801-.71 3.082-1 5-1"/><path fill="#8350D3" d="M286 58v4l-7-1-1-3c3.053-.981 4.947-.981 8 0"/><path fill="#486AB0" d="M168 54a85 85 0 0 1 2 7l-5 4a88 88 0 0 1-1-5l1-1v-2h2z"/><path fill="#6F43B6" d="M248 55h5l1 3 3 1v10h-1l-1-9-3-1v-2z"/><path fill="#28478B" d="m40 53 4 1h-2v2l2 1h-2l-1 4-2-3-2 1v-5l1 2h2z"/><path fill="#A888D2" d="M278 48c3.483 3.019 4.792 5.57 6 10-1.875-.187-1.875-.187-4-1-1.783-3.298-2-5.177-2-9"/><path fill="#667BAD" d="M183 64h6l-2 1v5l3 1-2 2c-4.429-5.143-4.429-5.143-5-9"/><path fill="#536CA8" d="M151 61h9v2l3-1-2 4v-2h-6v-2z"/><path fill="#3E5DA5" d="m50 56 7 1v6c-2.375-.687-2.375-.687-5-2-1.312-2.625-1.312-2.625-2-5"/><path fill="#4D6CB0" d="m112 51 3 1-1 10h-2z"/><path fill="#667CAD" d="M174 64c4.625 5.37 4.625 5.37 5 9l-1 2-2-1 1-3h-3z"/><path fill="#9C82C2" d="M372 64h2c4.093 6.45 4.093 6.45 3.621 9.234L377 75a397 397 0 0 1-2.5-3.812l-1.406-2.145C372 67 372 67 372 64"/><path fill="#274A9B" d="M92 65h2l2 6-2 1v-2h-2l1 5h-2z"/><path fill="#304F96" d="M166 61c3.599 0 5.095.958 8 3v2h-2l-1-1-3 1-2-1z"/><path fill="#2F467D" d="m160 41 1 2 3-1 3 1v3l-10-1 1-2h2z"/><path fill="#364E7C" d="m71 38 1 2 3.375-.625L79 39l2 2c-3 1-3 1-6 .938-3.185-.203-3.185-.203-6 2.062.875-4.875.875-4.875 2-6"/><path fill="#465A8D" d="M149 37h14l-2 1-1 2v-2h-6v2h-4z"/><path fill="#9B83C5" d="m313 64 2 3c-1.375 3.688-1.375 3.688-3 7h-2c.507-3.719 1.116-6.735 3-10"/><path fill="#B59CD6" d="M278 64c3 1 3 1 4.25 2.938L283 69l-1 2h6c-1.812 1.063-1.812 1.063-4 2-3-1-3-1-4.687-3.937C278 66 278 66 278 64"/><path fill="#7039C4" d="m279 61 5 2v2l2 1-5 1v-2l-3-1z"/><path fill="#793FD7" d="m375 59 2 5-2 1-3-1v-2l-4-1c2.647-1.46 3.894-2 7-2"/><path fill="#4465A8" d="M94 56c2.125.938 2.125.938 4 2l-2 4v-2h-2v2l-2-1v-4z"/><path fill="#566891" d="m134 42 1 4h2l-1 5-4-2v-2h2z"/><path fill="#314A85" d="m217 41 2 1v2h-5v6h-3l1-7h5z"/><path fill="#CCBFDF" d="m352 73 2 3c-3.734.879-7.168 1.09-11 1l-1-2h10z"/><path fill="#2A4895" d="m75 65 3 1-2 6h3v3l-4-1z"/><path fill="#2A4A9A" d="M154 66h1v9h-3l-1-6h2z"/><path fill="#5774B4" d="M54 50v6h-5v-5c2-1 2-1 5-1"/><path fill="#3E5892" d="M107 46h2v4h2v3l-5-1z"/><path fill="#738EC2" d="M45 44h5l1 3-2 3v-4h-2v3h-2z"/><path fill="#7D3FD8" d="m372 39 7 2v2h-8z"/><path fill="#365397" d="m39 57 2 1-3 9h-1c-.195-6.055-.195-6.055 0-8z"/><path fill="#7343C3" d="m385 55 1 3c-1.312 1.938-1.312 1.938-3 4a88 88 0 0 0-2 4c-1.467-3.815-.433-6.29 1-10l3 1z"/><path fill="#365185" d="m114 38 4 1 1 4h-3l1-2-3 1z"/><path fill="#9B79CE" d="m255 66 3 2-2 5h-4v-2h3z"/><path fill="#6B81B2" d="m164 69 5 1 1 4h-2l-1 2c-3-4.75-3-4.75-3-7"/><path fill="#7B50BB" d="M273 53h3l1 7-3-1z"/><path fill="#7690BC" d="M72 41h2v5h-5c1.875-3.875 1.875-3.875 3-5"/><path fill="#9C7BD0" d="m272 37 4 5-1 2-4-1z"/><path fill="#2D4FA6" d="M76 70h5l1 5h-3v-3h-3z"/><path fill="#25468F" d="m113 62 2 2-3 4-5-1 4-2v-2z"/><path fill="#4561A1" d="m177 57-1 4-1-2h-4v-2c2.49-1.245 3.41-.777 6 0"/><path fill="#2F4685" d="m66 47 3 1-1 3h-2l-1 3h-2l1-4h2z"/><path fill="#8A69C2" d="M349 69h2l1 6-4-1z"/><path fill="#7D4DC9" d="m325 55 2 3-1 3-4-2 1-3z"/><path fill="#8498BE" d="M63 50c.553 2.076 1 3.844 1 6l-4 1c0-3.517.824-4.371 3-7"/><path fill="#A786CF" d="M292 46h1v6l-4 1c1.875-5.875 1.875-5.875 3-7"/><path fill="#536AA3" d="m38 49 2 1v6h-2a129 129 0 0 1-1-6z"/><path fill="#798AAF" d="M218 40c2.799 2.528 4.458 4.204 5 8h-3z"/><path fill="#7282A7" d="m140 40 2 1c-.375 2.438-.375 2.438-1 5l-2 1c-.625-1.812-.625-1.812-1-4z"/><path fill="#345189" d="m44 41 1 2h2v-2l4 1-1 3h-6z"/></svg>